<?xml version="1.0" encoding="utf-8"?>
<!-- Generator: Adobe Illustrator 28.3.0, SVG Export Plug-In . SVG Version: 6.00 Build 0)  -->
<svg version="1.1" id="图层_1" xmlns="http://www.w3.org/2000/svg" xmlns:xlink="http://www.w3.org/1999/xlink" x="0px" y="0px"
	 viewBox="0 0 595.28 841.89" style="enable-background:new 0 0 595.28 841.89;" xml:space="preserve">
<style type="text/css">
	.st0{fill:#FFFCF2;}
	.st1{clip-path:url(#SVGID_00000129199240597606866640000003671073527380075193_);}
	.st2{fill:url(#SVGID_00000145778593089600341070000017149257388179248549_);}
	.st3{fill:url(#SVGID_00000016048312961431912160000004539122616819301288_);}
	.st4{fill:url(#SVGID_00000060715589192962159550000004415889006719840412_);}
	.st5{fill:#4C4C4C;}
</style>
<g>
	<path class="st0" d="M424.65,616.46H138.26c-35.05,0-63.46-28.41-63.46-63.46V266.61c0-35.05,28.41-63.46,63.46-63.46h286.39
		c35.05,0,63.46,28.41,63.46,63.46V553C488.12,588.05,459.7,616.46,424.65,616.46z"/>
	<g>
		<defs>
			<path id="SVGID_1_" d="M424.65,616.46H138.26c-35.05,0-63.46-28.41-63.46-63.46V266.61c0-35.05,28.41-63.46,63.46-63.46h286.39
				c35.05,0,63.46,28.41,63.46,63.46V553C488.12,588.05,459.7,616.46,424.65,616.46z"/>
		</defs>
		<clipPath id="SVGID_00000082370287545892737850000007689788681391210423_">
			<use xlink:href="#SVGID_1_"  style="overflow:visible;"/>
		</clipPath>
		<g style="clip-path:url(#SVGID_00000082370287545892737850000007689788681391210423_);">
			
				<linearGradient id="SVGID_00000088123306611818513180000014798709815222920320_" gradientUnits="userSpaceOnUse" x1="245.9954" y1="272.6377" x2="442.4439" y2="413.0914">
				<stop  offset="0.2577" style="stop-color:#FF5252"/>
				<stop  offset="1" style="stop-color:#F8F2E4"/>
			</linearGradient>
			<path style="fill:url(#SVGID_00000088123306611818513180000014798709815222920320_);" d="M192.87,244.91l288.24-44.28
				c12.88-1.98,24.49,8,24.46,21.03l-0.56,260.94c-0.02,10.39-7.57,19.25-17.83,20.91l-206.83,33.64
				c-10.36,1.68-20.39-4.45-23.62-14.43l-80.86-250.3C171.87,259.98,179.95,246.89,192.87,244.91z"/>
			
				<linearGradient id="SVGID_00000136381343980657646090000010788176093480655245_" gradientUnits="userSpaceOnUse" x1="245.4285" y1="327.9584" x2="386.2051" y2="640.7953">
				<stop  offset="0.2577" style="stop-color:#799A86"/>
				<stop  offset="1" style="stop-color:#F8F2E4"/>
			</linearGradient>
			<path style="fill:url(#SVGID_00000136381343980657646090000010788176093480655245_);" d="M119.57,332.78l343.23-34.27
				c14.73-1.47,27.53,10.08,27.57,24.88l0.86,300.46l-362.14-0.2L119.57,332.78z"/>
			
				<linearGradient id="SVGID_00000116917647614435461360000010068387011318607764_" gradientUnits="userSpaceOnUse" x1="-39.9483" y1="670.9793" x2="305.5478" y2="404.2805">
				<stop  offset="0.2577" style="stop-color:#7B9E89"/>
				<stop  offset="1" style="stop-color:#F8F2E4"/>
			</linearGradient>
			<path style="fill:url(#SVGID_00000116917647614435461360000010068387011318607764_);" d="M85.56,296.44l319.57,45.12
				c6.89,0.97,11.51,7.57,10.07,14.38l-20.58,258.2c-1.18,5.59-6.13,9.57-11.85,9.53L76.31,636.35
				c-6.58-0.05-11.89-5.38-11.92-11.96l7.47-316C71.84,301.07,78.31,295.42,85.56,296.44z"/>
			<g>
				<path class="st5" d="M206.56,395.74c12.1,5.08,24.6,9.2,37.35,12.29c3.56,0.86,7.14,1.64,10.73,2.34
					c-0.69-5.32-1.39-10.63-2.08-15.95c-8.24,4.09-16.6,7.93-25.08,11.5c0.69-0.29,1.39-0.59,2.08-0.88
					c-7.02,2.96-14.11,5.73-21.27,8.33c-2.17,0.79-4.02,1.96-5.22,4.01c-1.09,1.87-1.56,4.63-0.88,6.73
					c0.68,2.11,1.99,4.15,4.01,5.22c1.98,1.05,4.53,1.67,6.72,0.88c12.98-4.7,25.76-10,38.28-15.83c3.4-1.59,6.79-3.21,10.15-4.88
					c0.59-0.45,1.18-0.91,1.77-1.36c0.45-0.59,0.91-1.18,1.36-1.77c0.29-0.69,0.59-1.39,0.88-2.08c0.36-1.16,0.42-2.32,0.16-3.48
					c0-0.79-0.2-1.52-0.6-2.2c-0.21-0.74-0.58-1.38-1.12-1.93c-1.09-1.41-2.73-2.78-4.53-3.13c-12.85-2.51-25.5-6.05-37.79-10.58
					c-3.46-1.28-6.89-2.63-10.3-4.06c-1.16-0.36-2.32-0.42-3.48-0.16c-1.16,0.05-2.24,0.4-3.24,1.04c-1.81,1.06-3.54,3.14-4.01,5.22
					c-0.51,2.23-0.4,4.74,0.88,6.73c0.45,0.59,0.91,1.18,1.36,1.77C203.8,394.58,205.08,395.33,206.56,395.74L206.56,395.74z"/>
			</g>
			<g>
				<path class="st5" d="M368.24,368.82c-10.06,6.75-19.91,13.8-29.54,21.14c-3.29,2.5-6.56,5.03-9.8,7.59
					c-1.08,1.09-1.83,2.37-2.24,3.85c-0.42,1.55-0.42,3.09,0,4.64c0.84,3.04,3.16,5.14,6.1,6.1c8.9,2.91,17.8,5.81,26.7,8.72
					c2.55,0.83,5.1,1.66,7.65,2.5c1.16,0.36,2.32,0.42,3.48,0.16c1.16-0.05,2.24-0.4,3.24-1.04c1.81-1.06,3.54-3.14,4.01-5.22
					c0.51-2.23,0.4-4.74-0.88-6.73c-1.27-1.96-2.98-3.28-5.22-4.01c-8.9-2.91-17.8-5.81-26.7-8.72c-2.55-0.83-5.1-1.66-7.65-2.5
					c1.28,4.86,2.57,9.72,3.85,14.59c1.55-1.22,3.11-2.44,4.67-3.65c-0.59,0.45-1.18,0.91-1.77,1.36
					c8.36-6.46,16.89-12.71,25.58-18.72c2.43-1.68,4.88-3.35,7.33-5c1.9-1.27,3.39-2.97,4.01-5.22c0.36-1.16,0.42-2.32,0.16-3.48
					c-0.05-1.16-0.4-2.24-1.04-3.24c-1.2-1.86-2.99-3.5-5.22-4.01C372.75,367.44,370.19,367.52,368.24,368.82L368.24,368.82z"/>
			</g>
			<g>
				<path class="st5" d="M264.76,465.56c5.32,1.98,10.66,3.92,16.11,5.55c6.12,1.83,12.3,3.11,18.64,3.93
					c4.93,0.64,9.98-0.02,14.82-1.03c4.61-0.96,9.11-2.43,13.48-4.18c5.21-2.08,10.33-4.4,15.17-7.25c1.89-1.11,3.43-3.1,4.01-5.22
					c0.36-1.16,0.42-2.32,0.16-3.48c-0.05-1.16-0.4-2.24-1.04-3.24c-1.2-1.86-2.99-3.5-5.22-4.01c-2.29-0.52-4.66-0.33-6.72,0.88
					c-3.65,2.14-7.46,4.01-11.36,5.66c0.69-0.29,1.39-0.59,2.08-0.88c-6.04,2.54-12.38,4.64-18.89,5.52
					c0.77-0.1,1.55-0.21,2.32-0.31c-3.12,0.41-6.19,0.44-9.31,0.02c0.77,0.1,1.55,0.21,2.32,0.31c-8.56-1.18-16.86-3.7-24.99-6.57
					c-2.32-0.82-4.63-1.67-6.94-2.53c-1.16-0.36-2.32-0.42-3.48-0.16c-1.16,0.05-2.24,0.4-3.24,1.04c-1.81,1.06-3.54,3.14-4.01,5.22
					c-0.51,2.23-0.4,4.74,0.88,6.73c0.45,0.59,0.91,1.18,1.36,1.77C262,464.39,263.28,465.14,264.76,465.56L264.76,465.56z"/>
			</g>
			<g>
				<path class="st5" d="M263.02,444.74c-5.33,3.8-10.66,7.6-15.99,11.4c-1.38,0.98-2.45,2.11-2.92,3.79
					c-0.42,1.52-0.23,3.54,0.64,4.89c0.87,1.36,2.17,2.55,3.79,2.92c1.58,0.36,3.52,0.34,4.89-0.64c5.33-3.8,10.66-7.6,15.99-11.4
					c1.38-0.98,2.45-2.11,2.92-3.79c0.42-1.52,0.23-3.54-0.64-4.89c-0.87-1.36-2.17-2.55-3.79-2.92
					C266.33,443.74,264.39,443.77,263.02,444.74L263.02,444.74z"/>
			</g>
			<g>
				<path class="st0" d="M255.25,301.35c4.32-9.27,8.16-18.78,11.39-28.48c0.86-2.59,1.68-5.2,2.46-7.82
					c-4.42,1.17-8.84,2.33-13.26,3.5c3.36,3.64,6.56,7.42,9.6,11.34c-0.41-0.54-0.83-1.07-1.24-1.61c2.63,3.41,5.13,6.91,7.49,10.51
					c1.13,1.72,2.72,3.09,4.74,3.65c1.9,0.52,4.43,0.29,6.11-0.8c1.69-1.09,3.19-2.72,3.65-4.74c0.46-2.02,0.37-4.33-0.8-6.11
					c-5.44-8.29-11.59-16.17-18.32-23.46c-1.9-2.05-5.07-2.77-7.72-2.04c-2.71,0.75-4.75,2.87-5.54,5.54
					c-2.61,8.79-5.71,17.42-9.27,25.87c0.27-0.63,0.53-1.26,0.8-1.9c-1.21,2.87-2.47,5.71-3.79,8.53c-0.58,0.91-0.89,1.89-0.94,2.95
					c-0.24,1.05-0.19,2.11,0.14,3.16c0.51,1.84,1.93,3.83,3.65,4.74c1.84,0.97,4.07,1.46,6.11,0.8
					C252.37,304.39,254.39,303.2,255.25,301.35L255.25,301.35z"/>
			</g>
			<g>
				<path class="st0" d="M321.42,281.56c3.06-8.93,5.78-17.99,8.14-27.13c-4.42,1.17-8.84,2.33-13.26,3.5
					c6.81,5.78,13.62,11.56,20.44,17.35c0.72,0.77,1.57,1.32,2.55,1.64c0.95,0.5,1.96,0.72,3.06,0.68c1.95,0,4.27-0.86,5.61-2.32
					c1.39-1.51,2.42-3.5,2.32-5.61c-0.09-2-0.74-4.26-2.32-5.61c-6.81-5.78-13.62-11.56-20.44-17.35c-0.99-0.98-2.16-1.66-3.5-2.04
					c-1.41-0.38-2.81-0.38-4.22,0c-2.63,0.73-4.85,2.88-5.54,5.54c-2.36,9.15-5.07,18.2-8.14,27.13c-0.64,1.88-0.18,4.44,0.8,6.11
					c0.96,1.65,2.85,3.22,4.74,3.65c2.03,0.46,4.31,0.36,6.11-0.8C319.57,285.14,320.72,283.6,321.42,281.56L321.42,281.56z"/>
			</g>
		</g>
	</g>
</g>
</svg>
