<?xml version="1.0" encoding="UTF-8"?>
<svg id="_图层_1" data-name="图层 1" xmlns="http://www.w3.org/2000/svg" xmlns:xlink="http://www.w3.org/1999/xlink" viewBox="0 0 3656.69 7099.92">
  <defs>
    <style>
      .cls-1 {
        clip-path: url(#clippath);
      }

      .cls-2 {
        fill: none;
      }

      .cls-2, .cls-3, .cls-4, .cls-5, .cls-6, .cls-7, .cls-8, .cls-9, .cls-10, .cls-11, .cls-12, .cls-13, .cls-14, .cls-15, .cls-16 {
        stroke-width: 0px;
      }

      .cls-3 {
        fill: #4c4c4c;
      }

      .cls-4 {
        fill: #fffcf2;
      }

      .cls-5 {
        fill: #7d9e8a;
      }

      .cls-6 {
        fill: #427055;
      }

      .cls-7 {
        fill: #f9f3e6;
      }

      .cls-8 {
        fill: url(#_未命名的渐变_2);
      }

      .cls-9 {
        fill: url(#_未命名的渐变_3);
      }

      .cls-10 {
        fill: url(#_未命名的渐变_5);
      }

      .cls-11 {
        fill: url(#_未命名的渐变_2-2);
      }

      .cls-11, .cls-12, .cls-13, .cls-14, .cls-15, .cls-16 {
        opacity: .8;
      }

      .cls-12 {
        fill: url(#_未命名的渐变_2-3);
      }

      .cls-13 {
        fill: url(#_未命名的渐变_3-5);
      }

      .cls-14 {
        fill: url(#_未命名的渐变_3-4);
      }

      .cls-15 {
        fill: url(#_未命名的渐变_3-3);
      }

      .cls-16 {
        fill: url(#_未命名的渐变_3-2);
      }
    </style>
    <clipPath id="clippath">
      <rect class="cls-2" x="1089.83" y="2111.43" width="1477.02" height="1477.02" rx="63.46" ry="63.46"/>
    </clipPath>
    <linearGradient id="_未命名的渐变_2" data-name="未命名的渐变 2" x1="1701.62" y1="2359.76" x2="2403.65" y2="2861.68" gradientUnits="userSpaceOnUse">
      <stop offset=".26" stop-color="#ff5252"/>
      <stop offset="1" stop-color="#f8f2e4"/>
    </linearGradient>
    <linearGradient id="_未命名的渐变_5" data-name="未命名的渐变 5" x1="1699.59" y1="2557.45" x2="2202.67" y2="3675.41" gradientUnits="userSpaceOnUse">
      <stop offset=".26" stop-color="#799a86"/>
      <stop offset="1" stop-color="#f8f2e4"/>
    </linearGradient>
    <linearGradient id="_未命名的渐变_3" data-name="未命名的渐变 3" x1="679.77" y1="3783.27" x2="1914.43" y2="2830.2" gradientUnits="userSpaceOnUse">
      <stop offset=".26" stop-color="#7b9e89"/>
      <stop offset="1" stop-color="#f8f2e4"/>
    </linearGradient>
    <linearGradient id="_未命名的渐变_3-2" data-name="未命名的渐变 3" x1="4320.2" y1="10506.76" x2="3538.4" y2="9144.64" gradientTransform="translate(1806.01 -3926.99) rotate(17.57)" xlink:href="#_未命名的渐变_3"/>
    <linearGradient id="_未命名的渐变_3-3" data-name="未命名的渐变 3" x1="3768.57" y1="-670.91" x2="2826.43" y2="-2312.38" gradientTransform="translate(915.47 6737.71) rotate(-24.89) scale(1.05 .72)" xlink:href="#_未命名的渐变_3"/>
    <linearGradient id="_未命名的渐变_3-4" data-name="未命名的渐变 3" x1="17491.65" y1="-16615" x2="16637.52" y2="-18103.12" gradientTransform="translate(22330.15 5003.65) rotate(-132.75) scale(1.05 .72)" xlink:href="#_未命名的渐变_3"/>
    <linearGradient id="_未命名的渐变_2-2" data-name="未命名的渐变 2" x1="617.24" y1="6987.47" x2="-201.71" y2="5560.63" xlink:href="#_未命名的渐变_2"/>
    <linearGradient id="_未命名的渐变_3-5" data-name="未命名的渐变 3" x1="361.21" y1="2666.84" x2="-265.18" y2="1575.49" xlink:href="#_未命名的渐变_3"/>
    <linearGradient id="_未命名的渐变_2-3" data-name="未命名的渐变 2" x1="24689.71" y1="1455.85" x2="24009.45" y2="270.66" gradientTransform="translate(27816.95) rotate(-180) scale(1 -1)" xlink:href="#_未命名的渐变_2"/>
  </defs>
  <rect class="cls-7" x="0" y="0" width="3656.69" height="7099.92"/>
  <g>
    <rect class="cls-4" x="1089.83" y="2111.43" width="1477.02" height="1477.02" rx="63.46" ry="63.46"/>
    <g class="cls-1">
      <g>
        <path class="cls-8" d="M1511.78,2260.66l1030.06-158.22c46.03-7.07,87.51,28.6,87.41,75.17l-1.99,932.49c-.08,37.15-27.04,68.78-63.7,74.74l-739.11,120.22c-37.01,6.02-72.87-15.89-84.4-51.57l-288.96-894.48c-14.37-44.47,14.5-91.24,60.69-98.33Z"/>
        <path class="cls-10" d="M1249.82,2574.68l1226.57-122.48c52.65-5.26,98.37,36.01,98.52,88.92l3.07,1073.72-1294.14-.72-34.02-1039.44Z"/>
        <path class="cls-9" d="M1128.27,2444.83l1142.01,161.22c24.61,3.47,41.13,27.06,36,51.37l-73.54,922.7c-4.22,19.98-21.92,34.22-42.34,34.05l-1095.16,45.33c-23.5-.19-42.49-19.24-42.58-42.75l26.69-1129.25c-.11-26.16,23.02-46.34,48.92-42.68Z"/>
        <path class="cls-3" d="M1560.69,2799.68c43.25,18.14,87.91,32.89,133.49,43.93,12.72,3.08,25.51,5.87,38.36,8.38-2.48-19-4.97-38-7.45-57-29.45,14.61-59.33,28.32-89.61,41.11,2.48-1.05,4.97-2.1,7.45-3.14-25.07,10.57-50.42,20.49-76,29.75-7.76,2.81-14.36,7.02-18.64,14.33-3.91,6.69-5.57,16.54-3.14,24.03,2.44,7.55,7.12,14.83,14.33,18.64,7.09,3.74,16.2,5.98,24.03,3.14,46.39-16.79,92.05-35.73,136.78-56.55,12.17-5.66,24.26-11.49,36.28-17.45,2.1-1.63,4.21-3.25,6.31-4.88,1.63-2.1,3.25-4.21,4.88-6.31,1.05-2.48,2.1-4.97,3.14-7.45,1.3-4.15,1.49-8.29.56-12.44,0-2.81-.72-5.44-2.13-7.87-.74-2.64-2.08-4.94-4.01-6.88-3.89-5.03-9.75-9.92-16.2-11.18-45.94-8.97-91.13-21.63-135.05-37.81-12.37-4.56-24.63-9.4-36.79-14.5-4.15-1.3-8.29-1.49-12.44-.56-4.15.19-8.02,1.42-11.6,3.7-6.47,3.79-12.64,11.2-14.33,18.64-1.82,7.98-1.42,16.95,3.14,24.03,1.63,2.1,3.25,4.21,4.88,6.31,3.89,3.87,8.48,6.54,13.76,8.02h0Z"/>
        <path class="cls-3" d="M2138.47,2703.49c-35.95,24.11-71.15,49.31-105.58,75.54-11.75,8.95-23.43,17.99-35.03,27.13-3.87,3.89-6.54,8.48-8.02,13.76-1.49,5.53-1.49,11.05,0,16.58,2.99,10.87,11.3,18.36,21.78,21.78,31.8,10.38,63.61,20.77,95.41,31.15,9.11,2.97,18.22,5.95,27.32,8.92,4.15,1.3,8.29,1.49,12.44.56,4.15-.19,8.02-1.42,11.6-3.7,6.47-3.79,12.64-11.2,14.33-18.64,1.82-7.98,1.42-16.95-3.14-24.03-4.52-7.02-10.63-11.72-18.64-14.33-31.8-10.38-63.61-20.77-95.41-31.15-9.11-2.97-18.22-5.95-27.32-8.92,4.59,17.38,9.17,34.75,13.76,52.13,5.54-4.37,11.11-8.71,16.69-13.03-2.1,1.63-4.21,3.25-6.31,4.88,29.88-23.09,60.35-45.42,91.4-66.91,8.69-6.02,17.43-11.97,26.21-17.86,6.78-4.54,12.12-10.6,14.33-18.64,1.3-4.15,1.49-8.29.56-12.44-.19-4.15-1.42-8.02-3.7-11.6-4.29-6.66-10.69-12.52-18.64-14.33-7.9-1.8-17.08-1.52-24.03,3.14h0Z"/>
        <path class="cls-3" d="M1768.67,3049.17c19.02,7.08,38.11,14.01,57.55,19.84,21.88,6.56,43.97,11.12,66.62,14.04,17.64,2.28,35.65-.09,52.96-3.68,16.48-3.42,32.56-8.69,48.17-14.94,18.6-7.45,36.9-15.74,54.2-25.9,6.77-3.98,12.25-11.06,14.33-18.64,1.3-4.15,1.49-8.29.56-12.44-.19-4.15-1.42-8.02-3.7-11.6-4.29-6.66-10.69-12.52-18.64-14.33-8.18-1.86-16.66-1.19-24.03,3.14-13.04,7.66-26.66,14.33-40.59,20.22,2.48-1.05,4.97-2.1,7.45-3.14-21.59,9.08-44.22,16.58-67.51,19.74,2.76-.37,5.53-.74,8.29-1.11-11.15,1.47-22.12,1.56-33.26.07,2.76.37,5.53.74,8.29,1.11-30.6-4.2-60.25-13.2-89.3-23.48-8.3-2.94-16.56-5.98-24.81-9.05-4.15-1.3-8.29-1.49-12.44-.56-4.15.19-8.02,1.42-11.6,3.7-6.47,3.79-12.64,11.2-14.33,18.64-1.82,7.98-1.42,16.95,3.14,24.03,1.63,2.1,3.25,4.21,4.88,6.31,3.89,3.87,8.48,6.54,13.76,8.02h0Z"/>
        <path class="cls-3" d="M1762.46,2974.8c-19.05,13.58-38.1,27.16-57.15,40.74-4.92,3.51-8.77,7.54-10.42,13.56-1.5,5.43-.82,12.66,2.29,17.48,3.12,4.84,7.77,9.11,13.56,10.42,5.64,1.28,12.57,1.21,17.48-2.29,19.05-13.58,38.1-27.16,57.15-40.74,4.92-3.51,8.77-7.54,10.42-13.56,1.5-5.43.82-12.66-2.29-17.48s-7.77-9.11-13.56-10.42c-5.64-1.28-12.57-1.21-17.48,2.29h0Z"/>
        <path class="cls-4" d="M1734.67,2462.37c15.45-33.12,29.17-67.1,40.72-101.77,3.09-9.27,6.02-18.58,8.8-27.94-15.8,4.17-31.59,8.34-47.39,12.51,12.02,13,23.46,26.52,34.29,40.52-1.48-1.91-2.96-3.83-4.43-5.74,9.39,12.18,18.32,24.71,26.76,37.57,4.04,6.16,9.71,11.04,16.94,13.03,6.79,1.87,15.82,1.03,21.85-2.86,6.05-3.9,11.38-9.72,13.03-16.94s1.34-15.46-2.86-21.85c-19.46-29.64-41.41-57.79-65.48-83.82-6.79-7.34-18.13-9.9-27.59-7.29s-16.97,10.27-19.8,19.8c-9.34,31.4-20.4,62.27-33.12,92.46.95-2.26,1.91-4.52,2.86-6.77-4.33,10.24-8.84,20.4-13.54,30.48-2.07,3.25-3.19,6.77-3.36,10.54-.84,3.77-.68,7.54.51,11.31,1.81,6.58,6.9,13.7,13.03,16.94,6.58,3.48,14.55,5.22,21.85,2.86,6.65-2.15,13.87-6.44,16.94-13.03h0Z"/>
        <path class="cls-4" d="M1971.16,2391.65c10.95-31.93,20.65-64.28,29.08-96.96-15.8,4.17-31.59,8.34-47.39,12.51,24.34,20.66,48.69,41.33,73.03,61.99,2.57,2.76,5.61,4.72,9.12,5.86,3.38,1.78,7.02,2.59,10.92,2.44,6.95,0,15.26-3.09,20.05-8.3,4.96-5.4,8.64-12.5,8.3-20.05-.32-7.16-2.63-15.23-8.3-20.05-24.34-20.66-48.69-41.33-73.03-61.99-3.54-3.51-7.71-5.94-12.51-7.29-5.02-1.35-10.05-1.35-15.07,0-9.41,2.59-17.35,10.28-19.8,19.8-8.43,32.69-18.13,65.03-29.08,96.96-2.3,6.7-.64,15.88,2.86,21.85,3.44,5.88,10.19,11.49,16.94,13.03,7.26,1.65,15.41,1.3,21.85-2.86,6.43-4.14,10.54-9.67,13.03-16.94h0Z"/>
      </g>
    </g>
  </g>
  <g>
    <path class="cls-6" d="M1145.26,3990.7c.11-.11.27-.16.49-.16l42.32-5.91c.21,0,.38.06.49.16.11.11.16.28.16.49,1.97,12.91,8.64,22.86,20.01,29.86,11.37,7,23.84,9.57,37.4,7.71,13.56-1.86,24.06-8.25,31.5-19.19,3.94-5.91,6.01-11.86,6.23-17.88.21-6.01-1.48-11.43-5.08-16.24-3.61-4.81-8.69-8.42-15.26-10.83-5.03-1.75-14.66-3.61-28.87-5.58-2.84-.22-10.5-1.31-22.97-3.28-15.97-2.84-28.98-10.77-39.04-23.79-10.06-13.01-15.09-27.83-15.09-44.46s5.69-31.17,17.06-43.63c12.47-14,28.59-22.31,48.39-24.93,19.79-2.62,38.71.88,56.76,10.5,18.04,9.63,31.11,24.61,39.21,44.95.21.22.27.38.16.49-.11.11-.28.28-.49.49l-39.37,15.09c-.22.22-.38.28-.49.16-.11-.11-.28-.27-.49-.49-4.59-11.59-11.21-20.06-19.85-25.43-8.64-5.36-17.61-7.33-26.9-5.91-9.3,1.42-17.34,5.85-24.11,13.29-4.81,5.25-7.22,11.1-7.22,17.55s2.08,12.25,6.23,17.39c4.15,5.14,9.62,8.59,16.4,10.33,2.4.66,5.58,1.26,9.51,1.8,3.94.55,7.87,1.04,11.81,1.48,15.31,1.31,26.9,3.39,34.78,6.23,16.62,6.13,29.14,15.09,37.57,26.9,8.42,11.81,12.47,24.88,12.14,39.21-.33,14.33-4.98,27.94-13.94,40.85-13.34,19.47-32.97,30.79-58.89,33.96-25.92,3.17-49.98-1.8-72.18-14.93-22.2-13.12-35.05-31.71-38.55-55.78,0-.21.05-.38.16-.49Z"/>
    <path class="cls-6" d="M1399.53,4050.74c-13.89-8.2-24.88-19.24-32.97-33.14-8.09-13.89-12.14-28.92-12.14-45.11s4.1-31.55,12.3-45.44c8.2-13.89,19.24-24.88,33.14-32.97,13.89-8.09,28.92-12.14,45.11-12.14s31.55,4.05,45.44,12.14c13.89,8.09,24.88,19.08,32.97,32.97,8.09,13.89,12.14,29.04,12.14,45.44s-4.05,31.22-12.14,45.11c-8.09,13.89-19.09,24.93-32.97,33.14-13.89,8.2-29.04,12.3-45.44,12.3s-31.55-4.1-45.44-12.3ZM1470.23,4017.77c7.22-4.37,12.74-10.5,16.57-18.37,3.82-7.87,5.74-16.84,5.74-26.9s-1.92-19.3-5.74-27.07c-3.83-7.76-9.35-13.83-16.57-18.21-7.22-4.37-15.64-6.56-25.26-6.56s-18.04,2.19-25.26,6.56c-7.22,4.38-12.74,10.45-16.57,18.21-3.83,7.77-5.74,16.79-5.74,27.07s1.97,19.03,5.91,26.9c3.94,7.87,9.46,14,16.57,18.37,7.11,4.38,15.47,6.56,25.1,6.56s18.04-2.18,25.26-6.56Z"/>
    <path class="cls-6" d="M1686.27,3885.72c.11-.11.27-.16.49-.16h40.68c.21,0,.38.06.49.16.11.11.16.28.16.49v87.27c0,17.5-3.39,33.03-10.17,46.59-6.78,13.56-16.35,24.11-28.71,31.66-12.36,7.55-26.41,11.32-42.16,11.32s-30.08-3.82-41.67-11.48c-11.6-7.65-20.45-18.26-26.57-31.82-6.13-13.56-9.19-28.98-9.19-46.26v-87.27c0-.22.05-.38.16-.49.11-.11.27-.16.49-.16h40.68c.21,0,.38.06.49.16.11.11.16.28.16.49v87.27c0,11.81,1.2,21.27,3.61,28.38,2.4,7.11,6.18,12.3,11.32,15.58,5.14,3.28,11.97,4.92,20.5,4.92s16.02-1.69,21.82-5.08c5.79-3.39,10.11-8.69,12.96-15.91,2.84-7.22,4.27-16.51,4.27-27.89v-87.27c0-.22.05-.38.16-.49Z"/>
    <path class="cls-6" d="M1810.29,4059.27c-.11.11-.28.16-.49.16h-40.68c-.22,0-.38-.05-.49-.16-.11-.11-.16-.27-.16-.49v-247.38c0-.22.05-.38.16-.49.11-.11.27-.16.49-.16h40.68c.21,0,.38.06.49.16.11.11.16.28.16.49v247.38c0,.22-.06.38-.16.49Z"/>
    <path class="cls-6" d="M1862.95,3944.28c8.09-19.03,19.24-34.17,33.46-45.44,14.22-11.26,30.07-16.9,47.57-16.9,11.16,0,21.6,3.17,31.33,9.51,9.73,6.35,17.6,15.58,23.62,27.72,6.01,12.14,9.02,26.3,9.02,42.49v97.11c0,.22-.06.38-.16.49-.11.11-.28.16-.49.16h-40.68c-.22,0-.38-.05-.49-.16-.11-.11-.16-.27-.16-.49v-97.11c0-8.97-1.64-16.35-4.92-22.15-3.28-5.79-7.44-10.06-12.47-12.79-5.03-2.73-10.28-4.1-15.75-4.1-7.87,0-14.76,1.64-20.67,4.92-5.91,3.28-10.61,8.86-14.11,16.73-3.5,7.87-5.25,18.49-5.25,31.82l-42,29.53c0-21.87,4.04-42.32,12.14-61.35ZM1892.64,4059.27c-.11.11-.28.16-.49.16h-40.68c-.22,0-.38-.05-.49-.16-.11-.11-.16-.27-.16-.49v-172.57c0-.22.05-.38.16-.49.11-.11.27-.16.49-.16h40.68c.21,0,.38.06.49.16.11.11.16.28.16.49v172.57c0,.22-.06.38-.16.49Z"/>
    <path class="cls-6" d="M2087.19,4050.74c-13.89-8.2-24.88-19.24-32.97-33.14-8.09-13.89-12.14-28.92-12.14-45.11s4.1-31.55,12.3-45.44c8.2-13.89,19.24-24.88,33.14-32.97,13.89-8.09,28.92-12.14,45.11-12.14s31.55,4.05,45.44,12.14c13.89,8.09,24.88,19.08,32.97,32.97,8.09,13.89,12.14,29.04,12.14,45.44s-4.05,31.22-12.14,45.11c-8.09,13.89-19.09,24.93-32.97,33.14-13.89,8.2-29.04,12.3-45.44,12.3s-31.55-4.1-45.44-12.3ZM2157.89,4017.77c7.22-4.37,12.74-10.5,16.57-18.37,3.82-7.87,5.74-16.84,5.74-26.9s-1.92-19.3-5.74-27.07c-3.83-7.76-9.35-13.83-16.57-18.21-7.22-4.37-15.64-6.56-25.26-6.56s-18.04,2.19-25.26,6.56c-7.22,4.38-12.74,10.45-16.57,18.21-3.83,7.77-5.74,16.79-5.74,27.07s1.97,19.03,5.91,26.9c3.94,7.87,9.46,14,16.57,18.37,7.11,4.38,15.47,6.56,25.1,6.56s18.04-2.18,25.26-6.56Z"/>
    <path class="cls-6" d="M2360.49,3885.72c.11.11.16.28.16.49v37.73c0,.22-.06.38-.16.49-.11.11-.28.16-.49.16h-118.44c-.22,0-.38-.05-.49-.16-.11-.11-.16-.27-.16-.49v-37.73c0-.22.05-.38.16-.49.11-.11.27-.16.49-.16h118.44c.22,0,.38.06.49.16ZM2360.49,4018.92c.11.11.16.28.16.49v39.37c0,.22-.06.38-.16.49-.11.11-.28.16-.49.16-29.75-.21-51.62-6.18-65.62-17.88-14-11.7-21-29.04-21-52v-158.79c0-.22.05-.38.16-.49.11-.11.27-.16.49-.16h40.68c.21,0,.38.06.49.16.11.11.16.28.16.49v152.23c0,9.41,1.15,16.62,3.44,21.65,2.3,5.03,6.61,8.64,12.96,10.83,6.34,2.19,15.75,3.28,28.21,3.28.22,0,.38.06.49.16Z"/>
    <path class="cls-6" d="M2557.34,3983.16c-.11.11-.28.16-.49.16h-37.73c0-14.87-2.02-27.07-6.07-36.58-4.05-9.51-9.63-16.4-16.73-20.67-7.11-4.26-15.48-6.4-25.1-6.4-11.15,0-20.5,2.02-28.05,6.07-7.55,4.05-13.29,10.01-17.22,17.88-3.94,7.87-5.91,17.39-5.91,28.54s1.97,21.33,5.91,29.2c3.94,7.87,9.95,13.84,18.04,17.88,8.09,4.05,18.26,6.07,30.51,6.07,8.31,0,16.08-2.13,23.29-6.4,7.22-4.27,13.78-10.44,19.69-18.54.21-.21.38-.33.49-.33h.49l32.15,21.98c.21.22.33.38.33.49v.49c-9.19,12.47-20.62,22.26-34.29,29.36-13.67,7.1-27.72,10.66-42.16,10.66-19.03,0-35.65-3.94-49.87-11.81-14.22-7.87-25.21-18.7-32.97-32.48-7.77-13.78-11.65-29.31-11.65-46.59s3.88-32.75,11.65-46.42c7.76-13.67,18.59-24.39,32.48-32.15,13.89-7.76,29.58-11.65,47.08-11.65,15.75,0,30.24,3.72,43.47,11.16,13.23,7.44,23.79,18.76,31.66,33.96,7.87,15.21,11.59,33.74,11.16,55.61,0,.22-.06.38-.16.49ZM2537.17,3983.32h-129.92v-34.12h129.92v34.12Z"/>
  </g>
  <path class="cls-16" d="M3655.72,6036.94l-1593.74-119c-67.51,4.4-123,54.89-133.73,121.69-66.78,415.8-323.21,950.84-422.09,1097.67-116.04,172.3,2336.29-1.4,2336.29-1.4l-186.72-1098.96Z"/>
  <path class="cls-15" d="M3663.53,3350.16l-704.26,541.53c-52.73,44.06-68.95,103.33-39.08,142.85,185.9,245.97,729.68,1113.22,733.67,1246.81,4.69,156.76,9.67-1931.19,9.67-1931.19Z"/>
  <path class="cls-14" d="M0,0l666.81,972.96c58.11,36.67,119.5,33.92,147.95-6.62,177.09-252.39,895.22-664.33,1021.14-709.11C1983.66,204.68,1710.93-.51,1710.93-.51L0,0Z"/>
  <path class="cls-11" d="M2.02,5419.33l389.27-63.85c58.31-9.89,115.66,21.03,133.16,71.89,90.76,263.8,427.75,1002.06,516.65,1195.65,13.08,28.49,5.06,61.27-20.11,82.23C834.25,6860.8-3.48,7308.01-3.48,7308.01l5.5-1888.67Z"/>
  <path class="cls-13" d="M-242.73,1543.96l289.46-87.35c58.31-9.89,115.66,21.03,133.16,71.89,90.76,263.8,521.44,280.31,610.34,473.9,13.08,28.49,5.06,61.27-20.11,82.23-186.74,155.54-1027.14,918.41-1027.14,918.41l14.3-1459.09Z"/>
  <path class="cls-12" d="M3653.76,286.94l-242.51-263.95c-58.31-9.89-115.66,21.03-133.16,71.89-90.76,263.8-352.82,445.44-441.72,639.03-13.08,28.49-5.06,61.27,20.11,82.23,186.74,155.54,811.57,929.88,811.57,929.88l-14.3-1459.09Z"/>
  <g>
    <path class="cls-5" d="M1718.03,5484.31v1.38c0,13.06-6.53,19.59-19.59,19.59h-275.59c-13.06,0-19.59-6.53-19.59-19.59v-1.38c0-13.06,6.53-19.59,19.59-19.59h275.59c13.06,0,19.59,6.53,19.59,19.59ZM1515.63,5377.44v99.31c0,30.24-5.33,58.65-15.98,85.22-10.65,26.58-26.97,50.74-48.97,72.5-4.81,4.58-9.57,6.75-14.26,6.53-4.7-.23-9.22-2.87-13.57-7.9l-.69-1.37c-8.48-9.85-7.9-19.47,1.72-28.87,17.64-17.64,30.46-36.77,38.49-57.38,8.02-20.62,12.03-43.52,12.03-68.72v-99.31c0-13.28,6.64-19.93,19.93-19.93h1.38c13.28,0,19.93,6.65,19.93,19.93ZM1700.5,5356.82v1.38c0,13.06-6.53,19.59-19.59,19.59h-240.54c-13.06,0-19.59-6.53-19.59-19.59v-1.38c0-13.06,6.53-19.59,19.59-19.59h240.54c13.06,0,19.59,6.53,19.59,19.59ZM1654.46,5377.44v243.63c0,13.28-6.65,19.93-19.93,19.93h-1.38c-13.29,0-19.93-6.65-19.93-19.93v-243.63c0-13.28,6.64-19.93,19.93-19.93h1.38c13.28,0,19.93,6.65,19.93,19.93Z"/>
    <path class="cls-5" d="M1853.07,5380.02c6.19,6.07,9.28,15.07,9.28,26.97v53.26c0,38.26-7.1,71.47-21.3,99.65-14.21,28.18-35.39,53.6-63.57,76.28-10.31,8.25-19.13,6.75-26.46-4.47l-.69-1.38c-7.1-10.77-5.27-20.27,5.5-28.52,16.26-12.83,29.38-26,39.34-39.52,9.96-13.51,17.35-28.52,22.16-45.01,4.81-16.49,7.22-35.51,7.22-57.04v-47.42h-63.91c-13.52,0-20.27-6.75-20.27-20.27v-1.38c0-13.51,6.75-20.27,20.27-20.27h65.63c11.68,0,20.62,3.04,26.8,9.11ZM1805.65,5349.61l-18.55,151.88,84.88,101.71c8.25,9.62,7.67,18.78-1.72,27.49l-.69.69c-9.4,8.7-18.21,8.25-26.46-1.38l-86.25-103.09c-6.42-7.79-9.05-16.72-7.9-26.8l19.24-155.32c1.38-12.37,8.13-17.64,20.27-15.81h1.38c12.14,1.84,17.41,8.71,15.81,20.62ZM1894.99,5502.18c6.19-6.18,15.35-9.28,27.49-9.28h96.21c12.14,0,21.3,3.09,27.49,9.28,6.19,6.19,9.28,15.35,9.28,27.49v75.25c0,12.14-3.09,21.3-9.28,27.49-6.19,6.19-15.35,9.28-27.49,9.28h-96.21c-12.14,0-21.3-3.09-27.49-9.28-6.19-6.18-9.28-15.35-9.28-27.49v-75.25c0-12.14,3.09-21.3,9.28-27.49ZM1971.97,5360.26l-35.74,58.07h86.25v-13.75c0-13.06,6.53-19.59,19.59-19.59h1.37c13.06,0,19.59,6.53,19.59,19.59v17.53c0,11.68-3.04,20.62-9.11,26.8-6.07,6.18-15.06,9.28-26.97,9.28h-97.93c-21.08,0-34.25-4.58-39.52-13.75-5.27-9.16-2.29-22.79,8.94-40.89l39.17-63.91c6.41-11,15.23-13.17,26.46-6.53l1.38.69c11,6.42,13.17,15.24,6.53,26.46ZM2014.23,5533.45h-87.28v67.69h87.28v-67.69Z"/>
    <path class="cls-5" d="M2182.95,5341.7c2.06,3.67,2.06,8.48,0,14.43-9.17,27.26-19.36,54.07-30.58,80.41-11.23,26.35-22.22,49.71-32.99,70.1-2.75,5.04-6.53,8.02-11.34,8.93-4.81.92-9.4-.8-13.74-5.15l-1.03-1.03c-9.17-9.16-10.88-19.59-5.15-31.27,21.07-40.77,39.86-85.56,56.35-134.36,2.06-6.41,5.27-10.82,9.62-13.23,4.35-2.41,9.39-2.23,15.12.52l1.38.69c6.19,2.98,10.31,6.3,12.37,9.96ZM2163.71,5468.85v156.35c0,13.06-6.53,19.59-19.59,19.59h-1.38c-13.06,0-19.59-6.53-19.59-19.59v-156.35c0-13.06,6.53-19.59,19.59-19.59h1.38c13.06,0,19.59,6.53,19.59,19.59ZM2247.9,5447.2c-8.25,55.67-21.19,108.93-38.83,159.79-4.12,12.37-12.37,16.26-24.74,11.68l-1.38-.69c-12.14-4.59-15.93-13.06-11.34-25.43,8.93-25.43,16.49-51.42,22.68-78,6.19-26.57,10.53-50.63,13.06-72.16,1.83-13.06,9.16-18.78,21.99-17.18h1.38c13.06,1.84,18.78,9.17,17.18,21.99ZM2405.28,5391.87v1.38c0,12.83-6.42,19.24-19.24,19.24h-186.93c-12.83,0-19.24-6.41-19.24-19.24v-1.38c0-12.83,6.41-19.24,19.24-19.24h186.93c12.83,0,19.24,6.42,19.24,19.24ZM2354.42,5566.78v1.38c0,12.6-6.3,18.9-18.9,18.9h-85.91c-12.6,0-18.9-6.3-18.9-18.9v-1.38c0-12.6,6.3-18.9,18.9-18.9h85.91c12.6,0,18.9,6.3,18.9,18.9ZM2312.84,5347.89v276.96c0,13.06-6.53,19.59-19.59,19.59h-1.38c-13.06,0-19.59-6.53-19.59-19.59v-276.96c0-13.06,6.53-19.59,19.59-19.59h1.38c13.06,0,19.59,6.53,19.59,19.59ZM2377.78,5442.39c7.79,52.69,19.81,102.74,36.08,150.16,4.12,12.6.23,21.07-11.68,25.43l-1.37.69c-12.37,4.58-20.62.69-24.74-11.68-9.62-27.03-17.76-54.75-24.4-83.16-6.65-28.4-11.34-53.95-14.09-76.63-2.06-12.83,3.55-20.16,16.84-21.99h1.38c12.83-1.6,20.16,4.12,21.99,17.18Z"/>
    <path class="cls-5" d="M2502.18,5558.19v1.38c0,12.83-6.42,19.24-19.24,19.24h-33.68c-12.83,0-19.24-6.41-19.24-19.24v-1.38c0-12.83,6.41-19.24,19.24-19.24h33.68c12.83,0,19.24,6.42,19.24,19.24ZM2531.39,5341.36c5.96,6.19,8.59,15.46,7.9,27.83l-6.53,105.49c-.69,11.91-6.99,17.52-18.9,16.84h-1.38c-11.91-.69-17.52-6.98-16.84-18.9l5.84-100h-48.45c-13.06,0-19.59-6.53-19.59-19.59v-1.38c0-13.06,6.53-19.59,19.59-19.59h51.2c12.14,0,21.19,3.09,27.15,9.28ZM2479.16,5403.9l-3.78,67.35h39.52c23.59,0,35.39,11.8,35.39,35.39v99.31c0,23.59-11.8,35.39-35.39,35.39h-11c-13.06,0-19.59-6.53-19.59-19.59v-1.37c0-13.06,6.53-19.59,19.59-19.59h8.59v-89h-40.2c-24.97,0-36.77-12.48-35.39-37.46l4.47-72.5c.69-12.14,7.1-17.87,19.24-17.18h1.38c12.14.69,17.87,7.1,17.18,19.24ZM2694.26,5347.2c9.16,17.41,18.95,34.19,29.38,50.34,10.42,16.15,19.53,28.92,27.32,38.31,7.79,10.31,6.98,19.36-2.41,27.15l-3.44,2.75c-8.48,6.65-16.61,5.04-24.4-4.81-11-14.43-21.54-29.43-31.61-45.01-10.08-15.58-19.36-31.27-27.83-47.08h-15.81c-8.48,15.81-17.76,31.5-27.83,47.08-10.08,15.58-20.62,30.58-31.61,45.01-7.79,9.85-16.61,10.77-26.46,2.75l-1.38-.69c-9.62-7.79-10.43-16.72-2.41-26.8,11.91-15.34,22.68-30.81,32.3-46.39,9.62-15.58,17.75-29.78,24.4-42.61,5.95-11.68,15.57-17.53,28.86-17.53h24.05c13.06,0,22.68,5.84,28.86,17.53ZM2749.93,5619.7v1.38c0,13.06-6.53,19.59-19.59,19.59h-150.16c-13.06,0-19.59-6.53-19.59-19.59v-1.38c0-13.06,6.53-19.59,19.59-19.59h150.16c13.06,0,19.59,6.53,19.59,19.59ZM2607.67,5498.05l4.12,59.79c.91,12.15-4.81,18.79-17.18,19.93h-1.38c-12.14.92-18.79-4.81-19.93-17.18l-4.12-59.79c-.92-12.14,4.81-18.78,17.18-19.93h1.37c12.14-.91,18.78,4.81,19.93,17.18ZM2695.64,5440.67v1.37c0,12.37-6.19,18.56-18.56,18.56h-47.08c-12.37,0-18.55-6.19-18.55-18.56v-1.37c0-12.37,6.19-18.56,18.55-18.56h47.08c12.37,0,18.56,6.18,18.56,18.56ZM2667.12,5498.4l4.12,59.79c.91,12.15-4.81,18.79-17.18,19.93h-1.38c-12.14.92-18.79-4.81-19.93-17.18l-4.12-59.79c-.92-12.14,4.81-18.78,17.18-19.93h1.38c12.14-.91,18.78,4.81,19.93,17.18ZM2732.75,5502.18c-5.27,32.3-12.6,66.44-21.99,102.4-3.44,11.91-11.11,16.38-23.02,13.4l-1.37-.69c-11.91-2.98-16.15-10.54-12.71-22.68,5.27-19.7,9.79-38.37,13.57-56.01,3.78-17.64,6.24-31.38,7.39-41.24,1.83-12.37,8.82-17.75,20.96-16.15h1.38c12.6,1.84,17.87,8.82,15.81,20.96Z"/>
  </g>
  <path class="cls-5" d="M1216.68,4832.2c-2.72.45-4.26,2.51-6.04,4.16-21.6,20.1-40.71,42.42-58.85,65.64-35.23,45.1-65.33,93.35-89.01,145.47-19.6,43.15-32.76,88.22-37.62,135.49-4.09,39.83-3.4,79.42,7.12,118.41,4.7,17.41,13.84,37.63,22.1,47.57,2.28-13.95,5.29-27.38,8.68-40.74,8.65-34.07,22.35-65.83,44.14-93.6,12.68-16.16,28.94-27.88,48.9-33.81,27.78-8.25,54.18,2.86,69.63,29.09,8.04,13.64,11.43,28.61,13.21,44.11,4.42,38.43-2.05,74.96-22,108.08-22.28,37-54.44,61.31-97.81,69.03-4.08.73-8.28,1.05-12.42.99-3.62-.05-4.54,1.06-4.04,4.63,2.25,16.01,5.56,31.79,9.52,47.45,14.59,57.69,36.48,112.58,63.84,165.32,13.63,26.28,29.01,51.52,47.25,74.94,9.33,11.98,10.14,23.73,2.45,33.89-8.59,11.34-25.4,12.68-35.73,2.89-9-8.54-15.76-18.85-22.55-29.06-44.82-67.3-76.5-140.58-98.71-218.14-7.9-27.56-15.11-55.38-16.5-84.05-.6-12.41-6.38-18.87-15.08-26.14-19.3-16.11-32.97-36.76-42.68-59.96-14.39-34.41-20.34-70.5-21.27-107.57-2.07-82.57,18.65-159.73,55.4-233.06,19.85-39.61,43.21-77.11,69.36-112.81,16-21.84,33.07-42.85,51.16-63.07,10.9-12.18,22.88-23.12,34.48-34.89-9.82,2.74-19.62,5.54-29.46,8.21-14.62,3.97-28.92,8.92-43.25,13.8-14.87,5.07-29.45-3.21-32.75-18.08-2.55-11.53,3.6-23.29,16.02-28.37,11.07-4.53,22.41-8.61,33.96-11.69,30.05-8.03,59.54-18.07,89.8-25.33,5.82-1.4,11.67-2.8,17.59-3.62,19.67-2.69,35.04,9.81,36.74,29.61.81,9.34.06,18.65-.98,27.9-4.57,40.25-6.21,80.6-5.12,121.09.3,10.91-3.63,19.98-13.96,25.08-9.28,4.58-18.23,3.3-26.24-2.96-6.59-5.14-9.01-12.51-9.49-20.65-1.37-23.3-.14-46.58.57-69.87.05-1.76.71-3.6-.35-5.38ZM1159.86,5356.09c4.17-5.13,9.18-10.29,12.76-16.48,13.98-24.16,20.12-50.06,16.99-77.97-1.11-9.94-2.2-19.85-8.22-28.38-3.31-4.68-6.51-6.11-11.9-4.44-2.67.83-5.22,2.14-7.69,3.48-11.87,6.43-19.24,17.04-25.92,28.23-20.46,34.24-29.35,72.09-34.27,111.1-1.49,11.78-.79,12.06,11.22,10.08,18.48-3.05,33-13.3,47.03-25.62Z"/>
  <g>
    <path class="cls-6" d="M954.29,4373.28v50.42c0,26.92-3.2,52.53-9.6,76.83-.29.29-.51.37-.65.22l-24.01-6.11c-.15-.29-.29-.51-.44-.66,5.96-21.83,8.95-45.25,8.95-70.28v-50.42c0-.29.14-.44.44-.44h24.88c.29,0,.44.15.44.44ZM998.38,4353.63v149.73h57.4v-22.7c0-.29.14-.44.44-.44h25.32c.29,0,.44.15.44.44v49.33c0,.14-.04.25-.11.33-.08.07-.18.11-.33.11h-108.91c-.15,0-.26-.04-.33-.11-.07-.07-.11-.18-.11-.33v-176.35c0-.29.14-.44.44-.44h25.32c.29,0,.44.15.44.44ZM1042.47,4330.93l10.26,88.39c0,.29-.15.44-.44.44l-24.88,3.06c-.29,0-.44-.14-.44-.44l-10.26-88.39c0-.29.14-.44.44-.44l24.88-3.06c.29,0,.44.15.44.44ZM1113.62,4373.28v50.42c0,25.32,2.91,48.67,8.73,70.06.14.15.07.36-.22.65l-24.01,6.55c-.15.15-.26.18-.33.11-.07-.07-.11-.18-.11-.33-6.55-23.86-9.82-49.54-9.82-77.05v-50.42c0-.29.14-.44.44-.44h24.88c.29,0,.44.15.44.44Z"/>
    <path class="cls-6" d="M1334.06,4441.81v23.14c0,.29-.15.44-.44.44h-188.58c-.29,0-.44-.14-.44-.44v-23.14c0-.29.14-.44.44-.44h188.58c.29,0,.44.15.44.44ZM1172.77,4331.37v9.6h61.77c.29,0,.44.15.44.44v23.13c0,.29-.15.44-.44.44h-87.52c-.15,0-.26-.03-.33-.11-.07-.07-.11-.18-.11-.33v-33.17c0-.29.14-.44.44-.44h25.32c.29,0,.44.15.44.44ZM1318.57,4464.29l10.04,21.39c.14.15.07.37-.22.66-53.98,24.88-112.84,40.96-176.57,48.24-.44,0-.65-.15-.65-.44l-2.62-23.57c0-.29.14-.44.44-.44,30.99-3.49,60.53-9.09,88.61-16.81,28.08-7.71,54.85-17.46,80.32-29.25.14-.14.36-.07.65.22ZM1327.08,4400.99v23.14c0,.29-.15.44-.44.44h-174.61c-.29,0-.44-.14-.44-.44v-23.14c0-.29.14-.44.44-.44h174.61c.29,0,.44.15.44.44ZM1206.38,4353.41v22.48c0,.29-.15.44-.44.44h-24.88c-.29,0-.44-.14-.44-.44v-22.48c0-.29.14-.44.44-.44h24.88c.29,0,.44.15.44.44ZM1219.48,4378.08c2.18,36.81,12.51,66.5,30.99,89.05,18.48,22.56,46.63,38.05,84.47,46.49.44.29.65.51.65.65l-5.67,23.14c0,.14-.04.25-.11.33-.08.07-.18.03-.33-.11-29.25-6.41-53.73-16.92-73.44-31.54-19.72-14.62-34.74-32.59-45.07-53.91-10.33-21.31-16.23-45.51-17.68-72.57,0-.44.14-.66.44-.66l25.32-1.31c.29,0,.44.15.44.44ZM1269.46,4331.37v9.6h63.73c.29,0,.44.15.44.44v23.13c0,.29-.15.44-.44.44h-89.49c-.15,0-.26-.03-.33-.11-.08-.07-.11-.18-.11-.33v-33.17c0-.29.14-.44.44-.44h25.32c.29,0,.44.15.44.44ZM1274.48,4373.71l8.29,21.83c.14.15.07.37-.22.65l-23.14,8.73c-.15.15-.36.08-.65-.22l-8.29-21.83c-.15-.14-.07-.36.22-.65l23.14-8.73c.14-.14.36-.07.65.22ZM1298.05,4353.41v22.48c0,.29-.15.44-.44.44h-24.88c-.29,0-.44-.14-.44-.44v-22.48c0-.29.14-.44.44-.44h24.88c.29,0,.44.15.44.44Z"/>
    <path class="cls-6" d="M1556.9,4411.47v27.94c0,.29-.15.44-.44.44h-197.74c-.29,0-.44-.14-.44-.44v-27.94c0-.29.14-.44.44-.44h197.74c.29,0,.44.15.44.44Z"/>
    <path class="cls-6" d="M1578.08,4338.57h62.2c.29,0,.44.15.44.44v178.97c0,.29-.15.44-.44.44h-62.2c-.29,0-.44-.15-.44-.44v-178.97c0-.29.14-.44.44-.44ZM1589.43,4389.86h39.5c.29,0,.44.15.44.44v24.45c0,.29-.15.44-.44.44h-39.5c-.29,0-.44-.14-.44-.44v-24.45c0-.29.14-.44.44-.44ZM1589.43,4441.37h39.5c.29,0,.44.15.44.44v24.45c0,.29-.15.44-.44.44h-39.5c-.29,0-.44-.14-.44-.44v-24.45c0-.29.14-.44.44-.44ZM1618.02,4492.66v-128.34h-17.68v128.34h17.68ZM1655.34,4417.15h23.14c.14,0,.25.04.33.11.07.08.11.18.11.33v8.73h24.66c.14,0,.25.04.33.11.07.08.11.18.11.33v35.79c0,17.9-4.29,32.88-12.88,44.96-8.59,12.08-21.61,21.31-39.07,27.72-.15.14-.36.07-.65-.22l-7.86-21.39c-.15-.15-.18-.26-.11-.33.07-.08.18-.18.33-.33,13.39-4.94,22.77-11.17,28.16-18.66,5.38-7.49,8.08-18.08,8.08-31.76v-12.66h-24.66c-.15,0-.26-.03-.33-.11-.08-.07-.11-.18-.11-.33v-31.87c0-.29.14-.44.44-.44ZM1666.69,4454.69l8.29,32.96c0,.29-.15.44-.44.44l-20.08,5.24c-.29,0-.44-.14-.44-.44l-8.29-32.96c0-.29.14-.44.44-.44l20.08-5.24c.29,0,.44.15.44.44ZM1646.39,4387.9h130.74c.29,0,.44.15.44.44v30.99c0,.29-.15.44-.44.44h-23.57c-.29,0-.44-.14-.44-.44v-9.6h-82.72v9.6c0,.29-.15.44-.44.44h-23.57c-.15,0-.26-.03-.33-.11-.07-.07-.11-.18-.11-.33v-30.99c0-.29.14-.44.44-.44ZM1648.14,4337.26h56.53c28.08,0,51.07-1.31,68.97-3.93.44,0,.65.15.65.44l3.06,20.95c0,.29-.15.44-.44.44-18.77,2.62-42.85,3.93-72.24,3.93h-56.53c-.29,0-.44-.14-.44-.44v-20.95c0-.29.14-.44.44-.44ZM1680,4362.58l4.8,20.08c0,.29-.15.44-.44.44l-23.14,5.67c-.29,0-.44-.14-.44-.44l-4.8-20.08c0-.29.14-.44.44-.44l23.14-5.67c.29,0,.44.15.44.44ZM1699.65,4362.8h23.57c.29,0,.44.15.44.44v20.3c0,.29-.15.44-.44.44h-23.57c-.29,0-.44-.14-.44-.44v-20.3c0-.29.14-.44.44-.44ZM1709.9,4457.52h19.64c.29,0,.44.15.44.44v22.48h46.93c.29,0,.44.15.44.44v22.7c0,.29-.15.44-.44.44h-67.01c-.29,0-.44-.14-.44-.44v-45.62c0-.29.14-.44.44-.44ZM1710.34,4426.09h63.95c.29,0,.44.15.44.44v22.26c0,.29-.15.44-.44.44h-63.95c-.29,0-.44-.14-.44-.44v-22.26c0-.29.14-.44.44-.44ZM1736.97,4417.15h23.14c.29,0,.44.15.44.44v114.8c0,.29-.15.44-.44.44h-23.14c-.29,0-.44-.15-.44-.44v-114.8c0-.29.14-.44.44-.44ZM1744.39,4362.14l23.14,5.67c.29,0,.44.15.44.44l-4.8,20.08c0,.29-.15.44-.44.44l-23.14-5.67c-.29,0-.44-.14-.44-.44l4.8-20.08c0-.29.14-.44.44-.44Z"/>
    <path class="cls-6" d="M1834.09,4539.48c0,.07-.08.11-.22.11h-20.3c-.15,0-.26-.04-.33-.11-.08-.07-.04-.18.11-.33,4.94-6.69,8.8-14.7,11.57-24.01,2.76-9.31,4.15-18.12,4.15-26.41,0-.29.14-.44.44-.44h25.75c.14,0,.25.04.33.11.07.08.11.18.11.33-.15,8-2.15,16.73-6,26.19-3.86,9.46-8.99,17.6-15.39,24.45-.15,0-.22.03-.22.11Z"/>
    <path class="cls-6" d="M2014.81,4339.01h62.42c.29,0,.44.15.44.44v178.1c0,.29-.15.44-.44.44h-62.42c-.29,0-.44-.15-.44-.44v-178.1c0-.29.14-.44.44-.44ZM2066.54,4415.84v25.32c0,.29-.15.44-.44.44h-40.16c-.29,0-.44-.14-.44-.44v-25.32c0-.29.14-.44.44-.44h40.16c.29,0,.44.15.44.44ZM2055.41,4365.2h-18.77v126.59h18.77v-126.59ZM2139.66,4398.37c-2.33,23.43-7.09,46.16-14.3,68.21s-16.48,43.03-27.83,62.97c-.29.29-.51.36-.65.22l-20.52-11.79c-.29-.29-.36-.51-.22-.66,10.77-18.62,19.39-38.01,25.86-58.17,6.47-20.15,10.88-41.21,13.2-63.19,0-.44.14-.66.44-.66l23.57,2.62c.29,0,.44.15.44.44ZM2213.43,4420.42v20.95c0,.29-.15.44-.44.44h-130.3c-.29,0-.44-.14-.44-.44v-20.95c0-.29.14-.44.44-.44h130.3c.29,0,.44.15.44.44ZM2206.01,4331.59c.44-.29.65-.22.65.22l4.37,21.83c0,.29-.15.44-.44.44-9.31,1.75-19.86,3.06-31.65,3.93-11.79.87-23.79,1.31-36.01,1.31h-55.87c-.29,0-.44-.14-.44-.44v-22.04c0-.29.14-.44.44-.44h55.87c24.73,0,45.76-1.6,63.08-4.8ZM2208.84,4387.03v20.95c0,.29-.15.44-.44.44h-121.35c-.29,0-.44-.14-.44-.44v-20.95c0-.29.14-.44.44-.44h121.35c.29,0,.44.15.44.44ZM2118.27,4364.11l4.15,31.21c0,.29-.15.44-.44.44l-22.7,3.06c-.29,0-.44-.14-.44-.44l-4.15-31.21c0-.29.14-.44.44-.44l22.7-3.06c.29,0,.44.15.44.44ZM2212.23,4452.18c.07.08.03.18-.11.33-8,21.68-20.55,39.21-37.65,52.6-17.1,13.38-38.16,23.28-63.19,29.68-.15.14-.36.07-.65-.22l-5.24-20.95c-.15-.15-.18-.26-.11-.33.07-.08.18-.11.33-.11,15.28-3.93,28.48-8.98,39.61-15.17,11.13-6.18,20.63-13.93,28.48-23.25h-62.42c-.29,0-.44-.14-.44-.44v-21.83c0-.29.14-.44.44-.44h100.62c.14,0,.25.04.33.11ZM2132.45,4472.15c10.04,10.62,21.64,19.28,34.81,25.97,13.17,6.69,27.97,11.57,44.42,14.62.44.29.65.51.65.65l-3.93,21.39c0,.29-.15.44-.44.44-18.48-3.49-35.5-9.17-51.07-17.02-15.57-7.86-29.25-17.97-41.03-30.34-.29-.29-.36-.51-.22-.65l16.15-15.28c.14-.14.36-.07.65.22ZM2159.08,4364.54l.22,32.3c0,.29-.15.44-.44.44h-22.7c-.29,0-.44-.14-.44-.44l-.22-32.3c0-.29.14-.44.44-.44h22.7c.29,0,.44.15.44.44ZM2200.55,4367.16l-3.93,31.21c0,.29-.15.44-.44.44l-22.7-3.06c-.29,0-.44-.14-.44-.44l3.93-31.21c0-.29.14-.44.44-.44l22.7,3.06c.29,0,.44.15.44.44Z"/>
    <path class="cls-6" d="M2269.3,4484.81c-2.04,7.86-4.66,15.61-7.86,23.25-3.2,7.64-6.77,14.88-10.69,21.72-.29.29-.51.36-.65.22l-21.39-12.66c-.29-.29-.36-.51-.22-.65,2.91-4.8,5.53-9.96,7.86-15.5,3.35-7.42,5.96-15.06,7.86-22.92.29-.29.51-.36.65-.22l24.01,6.11c.14.15.29.36.44.65ZM2426.67,4373.93v20.95c0,.29-.15.44-.44.44h-191.2c-.29,0-.44-.14-.44-.44v-20.95c0-.29.14-.44.44-.44h191.2c.29,0,.44.15.44.44ZM2420.56,4341.41v20.95c0,.29-.15.44-.44.44h-178.97c-.29,0-.44-.14-.44-.44v-20.95c0-.29.14-.44.44-.44h178.97c.29,0,.44.15.44.44ZM2250.1,4401.87h161.08c.29,0,.44.15.44.44v73.77c0,.29-.15.44-.44.44h-161.08c-.29,0-.44-.14-.44-.44v-73.77c0-.29.14-.44.44-.44ZM2398.51,4429.59v18.33c0,.29-.15.44-.44.44h-134.88c-.29,0-.44-.14-.44-.44v-18.33c0-.29.14-.44.44-.44h134.88c.29,0,.44.15.44.44ZM2298.77,4351.23l7.42,29.46c.14.15.07.37-.22.66l-24.45,6.11c-.15.15-.36.08-.65-.22l-7.42-29.46c-.15-.14-.08-.36.22-.66l24.45-6.11c.14-.14.36-.07.65.22ZM2385.42,4422.38h-109.57v33.61h109.57v-33.61ZM2304.88,4479.79v29.25h59.8v-12.66c0-.29.14-.44.44-.44h25.32c.29,0,.44.15.44.44v35.14c0,.14-.04.25-.11.33-.07.07-.18.11-.33.11h-111.31c-.15,0-.26-.04-.33-.11-.07-.08-.11-.18-.11-.33v-51.73c0-.29.14-.44.44-.44h25.32c.29,0,.44.15.44.44ZM2344.17,4330.06v21.39c0,.29-.15.44-.44.44h-26.19c-.29,0-.44-.14-.44-.44v-21.39c0-.29.14-.44.44-.44h26.19c.29,0,.44.15.44.44ZM2345.47,4471.49l12.66,23.57c.14.15.07.36-.22.65l-21.83,11.79c-.15.15-.36.08-.65-.22l-12.66-23.57c-.15-.14-.07-.36.22-.66l21.83-11.79c.14-.14.36-.07.65.22ZM2387.82,4357.78l-7.42,29.46c-.29.29-.51.37-.65.22l-24.44-6.11c-.29-.29-.36-.51-.22-.66l7.42-29.46c.29-.29.51-.36.65-.22l24.45,6.11c.29.29.36.51.22.66ZM2417.06,4478.48c1.16,4.51,2.54,8.95,4.15,13.31,1.6,4.37,3.38,8.62,5.35,12.77,1.96,4.15,4.11,8.18,6.44,12.11.14.14.07.36-.22.65l-21.39,12.66c-.15.14-.36.07-.65-.22-8.29-14.26-14.41-29.32-18.33-45.18-.15-.14-.18-.25-.11-.33.07-.07.18-.11.33-.11l24.01-6.11c.29,0,.44.15.44.44Z"/>
    <path class="cls-6" d="M2461.7,4349.59c.07-.07.18-.11.33-.11h173.73c.14,0,.25.04.33.11.07.07.11.18.11.33v180.28c0,.14-.04.25-.11.33-.08.07-.18.11-.33.11h-173.73c-.15,0-.26-.04-.33-.11-.07-.08-.11-.18-.11-.33v-180.28c0-.14.03-.25.11-.33ZM2622.88,4402.3v24.88c0,.29-.15.44-.44.44h-147.11c-.29,0-.44-.14-.44-.44v-24.88c0-.29.14-.44.44-.44h147.11c.29,0,.44.15.44.44ZM2622.88,4452.28v24.88c0,.29-.15.44-.44.44h-147.11c-.29,0-.44-.14-.44-.44v-24.88c0-.29.14-.44.44-.44h147.11c.29,0,.44.15.44.44ZM2609.57,4375.24h-121.35v129.65h121.35v-129.65ZM2562.42,4330.93v30.99c0,.29-.15.44-.44.44h-26.19c-.29,0-.44-.14-.44-.44v-30.99c0-.29.14-.44.44-.44h26.19c.29,0,.44.15.44.44Z"/>
    <path class="cls-6" d="M2865.59,4502.49v25.32c0,.29-.15.44-.44.44h-196c-.29,0-.44-.15-.44-.44v-25.32c0-.29.14-.44.44-.44h196c.29,0,.44.15.44.44ZM2704.07,4344.25v19.42h154.09c.29,0,.44.15.44.44v25.32c0,.29-.15.44-.44.44h-179.85c-.15,0-.26-.03-.33-.11-.07-.07-.11-.18-.11-.33v-45.18c0-.29.14-.44.44-.44h25.32c.29,0,.44.15.44.44ZM2850.74,4430.9v25.32c0,.29-.15.44-.44.44h-166.31c-.29,0-.44-.14-.44-.44v-25.32c0-.29.14-.44.44-.44h166.31c.29,0,.44.15.44.44ZM2781.56,4332.24v183.34c0,.29-.15.44-.44.44h-25.75c-.29,0-.44-.15-.44-.44v-183.34c0-.29.14-.44.44-.44h25.75c.29,0,.44.15.44.44Z"/>
  </g>
</svg>