<?xml version="1.0" encoding="UTF-8"?>
<svg id="_图层_1" data-name="图层 1" xmlns="http://www.w3.org/2000/svg" xmlns:xlink="http://www.w3.org/1999/xlink" viewBox="0 0 3656.69 7099.92">
  <defs>
    <style>
      .cls-1 {
        clip-path: url(#clippath);
      }

      .cls-2 {
        letter-spacing: -.02em;
      }

      .cls-3 {
        fill: none;
      }

      .cls-3, .cls-4, .cls-5, .cls-6, .cls-7, .cls-8, .cls-9, .cls-10, .cls-11, .cls-12, .cls-13, .cls-14, .cls-15, .cls-16 {
        stroke-width: 0px;
      }

      .cls-4 {
        fill: #4c4c4c;
      }

      .cls-5 {
        fill: #fffcf2;
      }

      .cls-6, .cls-17 {
        fill: #7d9e8a;
      }

      .cls-17 {
        font-family: AlimamaFangYuanTiVF-Thin, 'Alimama FangYuanTi VF';
        font-size: 343.62px;
        font-variation-settings: 'wght' 700, 'BEVL' 100;
        font-weight: 200;
      }

      .cls-18 {
        font-size: 328.09px;
      }

      .cls-18, .cls-19 {
        fill: #427055;
        font-family: AlimamaFangYuanTiVF-Bold-Square, 'Alimama FangYuanTi VF';
        font-variation-settings: 'wght' 700, 'BEVL' 1;
        font-weight: 700;
      }

      .cls-7 {
        fill: #f9f3e6;
      }

      .cls-8 {
        fill: url(#_未命名的渐变_2);
      }

      .cls-9 {
        fill: url(#_未命名的渐变_3);
      }

      .cls-10 {
        fill: url(#_未命名的渐变_5);
      }

      .cls-19 {
        font-size: 218.26px;
      }

      .cls-11 {
        fill: url(#_未命名的渐变_2-2);
      }

      .cls-11, .cls-12, .cls-13, .cls-14, .cls-15, .cls-16 {
        opacity: .8;
      }

      .cls-12 {
        fill: url(#_未命名的渐变_2-3);
      }

      .cls-13 {
        fill: url(#_未命名的渐变_3-5);
      }

      .cls-14 {
        fill: url(#_未命名的渐变_3-4);
      }

      .cls-15 {
        fill: url(#_未命名的渐变_3-3);
      }

      .cls-16 {
        fill: url(#_未命名的渐变_3-2);
      }
    </style>
    <clipPath id="clippath">
      <rect class="cls-3" x="1089.83" y="2111.43" width="1477.02" height="1477.02" rx="63.46" ry="63.46"/>
    </clipPath>
    <linearGradient id="_未命名的渐变_2" data-name="未命名的渐变 2" x1="1701.62" y1="2359.76" x2="2403.65" y2="2861.68" gradientUnits="userSpaceOnUse">
      <stop offset=".26" stop-color="#ff5252"/>
      <stop offset="1" stop-color="#f8f2e4"/>
    </linearGradient>
    <linearGradient id="_未命名的渐变_5" data-name="未命名的渐变 5" x1="1699.59" y1="2557.45" x2="2202.67" y2="3675.41" gradientUnits="userSpaceOnUse">
      <stop offset=".26" stop-color="#799a86"/>
      <stop offset="1" stop-color="#f8f2e4"/>
    </linearGradient>
    <linearGradient id="_未命名的渐变_3" data-name="未命名的渐变 3" x1="679.77" y1="3783.27" x2="1914.43" y2="2830.2" gradientUnits="userSpaceOnUse">
      <stop offset=".26" stop-color="#7b9e89"/>
      <stop offset="1" stop-color="#f8f2e4"/>
    </linearGradient>
    <linearGradient id="_未命名的渐变_3-2" data-name="未命名的渐变 3" x1="4320.2" y1="10506.76" x2="3538.4" y2="9144.64" gradientTransform="translate(1806.01 -3926.99) rotate(17.57)" xlink:href="#_未命名的渐变_3"/>
    <linearGradient id="_未命名的渐变_3-3" data-name="未命名的渐变 3" x1="3768.57" y1="-670.91" x2="2826.43" y2="-2312.38" gradientTransform="translate(915.47 6737.71) rotate(-24.89) scale(1.05 .72)" xlink:href="#_未命名的渐变_3"/>
    <linearGradient id="_未命名的渐变_3-4" data-name="未命名的渐变 3" x1="17491.65" y1="-16615" x2="16637.52" y2="-18103.12" gradientTransform="translate(22330.15 5003.65) rotate(-132.75) scale(1.05 .72)" xlink:href="#_未命名的渐变_3"/>
    <linearGradient id="_未命名的渐变_2-2" data-name="未命名的渐变 2" x1="617.24" y1="6987.47" x2="-201.71" y2="5560.63" xlink:href="#_未命名的渐变_2"/>
    <linearGradient id="_未命名的渐变_3-5" data-name="未命名的渐变 3" x1="361.21" y1="2666.84" x2="-265.18" y2="1575.49" xlink:href="#_未命名的渐变_3"/>
    <linearGradient id="_未命名的渐变_2-3" data-name="未命名的渐变 2" x1="24689.71" y1="1455.85" x2="24009.45" y2="270.66" gradientTransform="translate(27816.95) rotate(-180) scale(1 -1)" xlink:href="#_未命名的渐变_2"/>
  </defs>
  <rect class="cls-7" y="0" width="3656.69" height="7099.92"/>
  <g>
    <rect class="cls-5" x="1089.83" y="2111.43" width="1477.02" height="1477.02" rx="63.46" ry="63.46"/>
    <g class="cls-1">
      <g>
        <path class="cls-8" d="M1511.78,2260.66l1030.06-158.22c46.03-7.07,87.51,28.6,87.41,75.17l-1.99,932.49c-.08,37.15-27.04,68.78-63.7,74.74l-739.11,120.22c-37.01,6.02-72.87-15.89-84.4-51.57l-288.96-894.48c-14.37-44.47,14.5-91.24,60.69-98.33Z"/>
        <path class="cls-10" d="M1249.82,2574.68l1226.57-122.48c52.65-5.26,98.37,36.01,98.52,88.92l3.07,1073.72-1294.14-.72-34.02-1039.44Z"/>
        <path class="cls-9" d="M1128.27,2444.83l1142.01,161.22c24.61,3.47,41.13,27.06,36,51.37l-73.54,922.7c-4.22,19.98-21.92,34.22-42.34,34.05l-1095.16,45.33c-23.5-.19-42.49-19.24-42.58-42.75l26.69-1129.25c-.11-26.16,23.02-46.34,48.92-42.68Z"/>
        <path class="cls-4" d="M1560.69,2799.68c43.25,18.14,87.91,32.89,133.49,43.93,12.72,3.08,25.51,5.87,38.36,8.38-2.48-19-4.97-38-7.45-57-29.45,14.61-59.33,28.32-89.61,41.11,2.48-1.05,4.97-2.1,7.45-3.14-25.07,10.57-50.42,20.49-76,29.75-7.76,2.81-14.36,7.02-18.64,14.33-3.91,6.69-5.57,16.54-3.14,24.03,2.44,7.55,7.12,14.83,14.33,18.64,7.09,3.74,16.2,5.98,24.03,3.14,46.39-16.79,92.05-35.73,136.78-56.55,12.17-5.66,24.26-11.49,36.28-17.45,2.1-1.63,4.21-3.25,6.31-4.88,1.63-2.1,3.25-4.21,4.88-6.31,1.05-2.48,2.1-4.97,3.14-7.45,1.3-4.15,1.49-8.29.56-12.44,0-2.81-.72-5.44-2.13-7.87-.74-2.64-2.08-4.94-4.01-6.88-3.89-5.03-9.75-9.92-16.2-11.18-45.94-8.97-91.13-21.63-135.05-37.81-12.37-4.56-24.63-9.4-36.79-14.5-4.15-1.3-8.29-1.49-12.44-.56-4.15.19-8.02,1.42-11.6,3.7-6.47,3.79-12.64,11.2-14.33,18.64-1.82,7.98-1.42,16.95,3.14,24.03,1.63,2.1,3.25,4.21,4.88,6.31,3.89,3.87,8.48,6.54,13.76,8.02h0Z"/>
        <path class="cls-4" d="M2138.47,2703.49c-35.95,24.11-71.15,49.31-105.58,75.54-11.75,8.95-23.43,17.99-35.03,27.13-3.87,3.89-6.54,8.48-8.02,13.76-1.49,5.53-1.49,11.05,0,16.58,2.99,10.87,11.3,18.36,21.78,21.78,31.8,10.38,63.61,20.77,95.41,31.15,9.11,2.97,18.22,5.95,27.32,8.92,4.15,1.3,8.29,1.49,12.44.56,4.15-.19,8.02-1.42,11.6-3.7,6.47-3.79,12.64-11.2,14.33-18.64,1.82-7.98,1.42-16.95-3.14-24.03s-10.63-11.72-18.64-14.33c-31.8-10.38-63.61-20.77-95.41-31.15-9.11-2.97-18.22-5.95-27.32-8.92,4.59,17.38,9.17,34.75,13.76,52.13,5.54-4.37,11.11-8.71,16.69-13.03-2.1,1.63-4.21,3.25-6.31,4.88,29.88-23.09,60.35-45.42,91.4-66.91,8.69-6.02,17.43-11.97,26.21-17.86,6.78-4.54,12.12-10.6,14.33-18.64,1.3-4.15,1.49-8.29.56-12.44-.19-4.15-1.42-8.02-3.7-11.6-4.29-6.66-10.69-12.52-18.64-14.33-7.9-1.8-17.08-1.52-24.03,3.14h0Z"/>
        <path class="cls-4" d="M1768.67,3049.17c19.02,7.08,38.11,14.01,57.55,19.84,21.88,6.56,43.97,11.12,66.62,14.04,17.64,2.28,35.65-.09,52.96-3.68,16.48-3.42,32.56-8.69,48.17-14.94,18.6-7.45,36.9-15.74,54.2-25.9,6.77-3.98,12.25-11.06,14.33-18.64,1.3-4.15,1.49-8.29.56-12.44-.19-4.15-1.42-8.02-3.7-11.6-4.29-6.66-10.69-12.52-18.64-14.33-8.18-1.86-16.66-1.19-24.03,3.14-13.04,7.66-26.66,14.33-40.59,20.22,2.48-1.05,4.97-2.1,7.45-3.14-21.59,9.08-44.22,16.58-67.51,19.74,2.76-.37,5.53-.74,8.29-1.11-11.15,1.47-22.12,1.56-33.26.07,2.76.37,5.53.74,8.29,1.11-30.6-4.2-60.25-13.2-89.3-23.48-8.3-2.94-16.56-5.98-24.81-9.05-4.15-1.3-8.29-1.49-12.44-.56-4.15.19-8.02,1.42-11.6,3.7-6.47,3.79-12.64,11.2-14.33,18.64-1.82,7.98-1.42,16.95,3.14,24.03,1.63,2.1,3.25,4.21,4.88,6.31,3.89,3.87,8.48,6.54,13.76,8.02h0Z"/>
        <path class="cls-4" d="M1762.46,2974.8c-19.05,13.58-38.1,27.16-57.15,40.74-4.92,3.51-8.77,7.54-10.42,13.56-1.5,5.43-.82,12.66,2.29,17.48s7.77,9.11,13.56,10.42,12.57,1.21,17.48-2.29c19.05-13.58,38.1-27.16,57.15-40.74,4.92-3.51,8.77-7.54,10.42-13.56,1.5-5.43.82-12.66-2.29-17.48s-7.77-9.11-13.56-10.42c-5.64-1.28-12.57-1.21-17.48,2.29h0Z"/>
        <path class="cls-5" d="M1734.67,2462.37c15.45-33.12,29.17-67.1,40.72-101.77,3.09-9.27,6.02-18.58,8.8-27.94-15.8,4.17-31.59,8.34-47.39,12.51,12.02,13,23.46,26.52,34.29,40.52-1.48-1.91-2.96-3.83-4.43-5.74,9.39,12.18,18.32,24.71,26.76,37.57,4.04,6.16,9.71,11.04,16.94,13.03,6.79,1.87,15.82,1.03,21.85-2.86,6.05-3.9,11.38-9.72,13.03-16.94,1.64-7.22,1.34-15.46-2.86-21.85-19.46-29.64-41.41-57.79-65.48-83.82-6.79-7.34-18.13-9.9-27.59-7.29-9.68,2.67-16.97,10.27-19.8,19.8-9.34,31.4-20.4,62.27-33.12,92.46.95-2.26,1.91-4.52,2.86-6.77-4.33,10.24-8.84,20.4-13.54,30.48-2.07,3.25-3.19,6.77-3.36,10.54-.84,3.77-.68,7.54.51,11.31,1.81,6.58,6.9,13.7,13.03,16.94,6.58,3.48,14.55,5.22,21.85,2.86,6.65-2.15,13.87-6.44,16.94-13.03h0Z"/>
        <path class="cls-5" d="M1971.16,2391.65c10.95-31.93,20.65-64.28,29.08-96.96-15.8,4.17-31.59,8.34-47.39,12.51,24.34,20.66,48.69,41.33,73.03,61.99,2.57,2.76,5.61,4.72,9.12,5.86,3.38,1.78,7.02,2.59,10.92,2.44,6.95,0,15.26-3.09,20.05-8.3s8.64-12.5,8.3-20.05c-.32-7.16-2.63-15.23-8.3-20.05-24.34-20.66-48.69-41.33-73.03-61.99-3.54-3.51-7.71-5.94-12.51-7.29-5.02-1.35-10.05-1.35-15.07,0-9.41,2.59-17.35,10.28-19.8,19.8-8.43,32.69-18.13,65.03-29.08,96.96-2.3,6.7-.64,15.88,2.86,21.85,3.44,5.88,10.19,11.49,16.94,13.03,7.26,1.65,15.41,1.3,21.85-2.86,6.43-4.14,10.54-9.67,13.03-16.94h0Z"/>
      </g>
    </g>
  </g>
  <text class="cls-18" transform="translate(1134.6 4059.44)"><tspan x="0" y="0">Souln</tspan><tspan class="cls-2" x="893.05" y="0">ot</tspan><tspan x="1230.98" y="0">e</tspan></text>
  <path class="cls-16" d="M3655.72,6036.94l-1593.74-119c-67.51,4.4-123,54.89-133.73,121.69-66.78,415.8-323.21,950.84-422.09,1097.67-116.04,172.3,2336.29-1.4,2336.29-1.4l-186.72-1098.96Z"/>
  <path class="cls-15" d="M3663.53,3350.16l-704.26,541.53c-52.73,44.06-68.95,103.33-39.08,142.85,185.9,245.97,729.68,1113.22,733.67,1246.81,4.69,156.76,9.67-1931.19,9.67-1931.19Z"/>
  <path class="cls-14" d="M0,0l666.81,972.96c58.11,36.67,119.5,33.92,147.95-6.62,177.09-252.39,895.22-664.33,1021.14-709.11C1983.66,204.68,1710.93-.51,1710.93-.51L0,0Z"/>
  <path class="cls-11" d="M2.02,5419.33l389.27-63.85c58.31-9.89,115.66,21.03,133.16,71.89,90.76,263.8,427.75,1002.06,516.65,1195.65,13.08,28.49,5.06,61.27-20.11,82.23C834.25,6860.8-3.48,7308.01-3.48,7308.01l5.5-1888.67Z"/>
  <path class="cls-13" d="M-242.73,1543.96l289.46-87.35c58.31-9.89,115.66,21.03,133.16,71.89,90.76,263.8,521.44,280.31,610.34,473.9,13.08,28.49,5.06,61.27-20.11,82.23-186.74,155.54-1027.14,918.41-1027.14,918.41l14.3-1459.09Z"/>
  <path class="cls-12" d="M3653.76,286.94l-242.51-263.95c-58.31-9.89-115.66,21.03-133.16,71.89-90.76,263.8-352.82,445.44-441.72,639.03-13.08,28.49-5.06,61.27,20.11,82.23,186.74,155.54,811.57,929.88,811.57,929.88l-14.3-1459.09Z"/>
  <text class="cls-17" transform="translate(1388.84 5606.64)"><tspan x="0" y="0">开始体验</tspan></text>
  <path class="cls-6" d="M1216.68,4832.2c-2.72.45-4.26,2.51-6.04,4.16-21.6,20.1-40.71,42.42-58.85,65.64-35.23,45.1-65.33,93.35-89.01,145.47-19.6,43.15-32.76,88.22-37.62,135.49-4.09,39.83-3.4,79.42,7.12,118.41,4.7,17.41,13.84,37.63,22.1,47.57,2.28-13.95,5.29-27.38,8.68-40.74,8.65-34.07,22.35-65.83,44.14-93.6,12.68-16.16,28.94-27.88,48.9-33.81,27.78-8.25,54.18,2.86,69.63,29.09,8.04,13.64,11.43,28.61,13.21,44.11,4.42,38.43-2.05,74.96-22,108.08-22.28,37-54.44,61.31-97.81,69.03-4.08.73-8.28,1.05-12.42.99-3.62-.05-4.54,1.06-4.04,4.63,2.25,16.01,5.56,31.79,9.52,47.45,14.59,57.69,36.48,112.58,63.84,165.32,13.63,26.28,29.01,51.52,47.25,74.94,9.33,11.98,10.14,23.73,2.45,33.89-8.59,11.34-25.4,12.68-35.73,2.89-9-8.54-15.76-18.85-22.55-29.06-44.82-67.3-76.5-140.58-98.71-218.14-7.9-27.56-15.11-55.38-16.5-84.05-.6-12.41-6.38-18.87-15.08-26.14-19.3-16.11-32.97-36.76-42.68-59.96-14.39-34.41-20.34-70.5-21.27-107.57-2.07-82.57,18.65-159.73,55.4-233.06,19.85-39.61,43.21-77.11,69.36-112.81,16-21.84,33.07-42.85,51.16-63.07,10.9-12.18,22.88-23.12,34.48-34.89-9.82,2.74-19.62,5.54-29.46,8.21-14.62,3.97-28.92,8.92-43.25,13.8-14.87,5.07-29.45-3.21-32.75-18.08-2.55-11.53,3.6-23.29,16.02-28.37,11.07-4.53,22.41-8.61,33.96-11.69,30.05-8.03,59.54-18.07,89.8-25.33,5.82-1.4,11.67-2.8,17.59-3.62,19.67-2.69,35.04,9.81,36.74,29.61.81,9.34.06,18.65-.98,27.9-4.57,40.25-6.21,80.6-5.12,121.09.3,10.91-3.63,19.98-13.96,25.08-9.28,4.58-18.23,3.3-26.24-2.96-6.59-5.14-9.01-12.51-9.49-20.65-1.37-23.3-.14-46.58.57-69.87.05-1.76.71-3.6-.35-5.38ZM1159.86,5356.09c4.17-5.13,9.18-10.29,12.76-16.48,13.98-24.16,20.12-50.06,16.99-77.97-1.11-9.94-2.2-19.85-8.22-28.38-3.31-4.68-6.51-6.11-11.9-4.44-2.67.83-5.22,2.14-7.69,3.48-11.87,6.43-19.24,17.04-25.92,28.23-20.46,34.24-29.35,72.09-34.27,111.1-1.49,11.78-.79,12.06,11.22,10.08,18.48-3.05,33-13.3,47.03-25.62Z"/>
  <text class="cls-19" transform="translate(911.95 4508.81)"><tspan x="0" y="0">心笺一瞬，暖意自生</tspan></text>
</svg>