<?xml version="1.0" encoding="utf-8"?>
<!-- Generator: Adobe Illustrator 28.3.0, SVG Export Plug-In . SVG Version: 6.00 Build 0)  -->
<svg version="1.1" id="图层_1" xmlns="http://www.w3.org/2000/svg" xmlns:xlink="http://www.w3.org/1999/xlink" x="0px" y="0px"
	 viewBox="0 0 595.28 841.89" style="enable-background:new 0 0 595.28 841.89;" xml:space="preserve">
<style type="text/css">
	.st0{fill:url(#SVGID_1_);}
	.st1{fill:#FFFBF0;}
	.st2{fill:none;stroke:#FFFBF0;stroke-width:7;stroke-miterlimit:10;}
	.st3{fill:#FF524D;}
</style>
<g>
	<linearGradient id="SVGID_1_" gradientUnits="userSpaceOnUse" x1="46.4072" y1="615.6887" x2="525.3873" y2="62.9262">
		<stop  offset="0.2577" style="stop-color:#7A9D87"/>
		<stop  offset="1" style="stop-color:#F7F1E2"/>
	</linearGradient>
	<path class="st0" d="M497.21,562.53l19.78-387.66c0.96-18.91-13.58-35.01-32.49-35.98L89.71,118.75
		c-18.91-0.96-35.01,13.58-35.98,32.49L26.8,679.12c-0.96,18.91,13.58,35.01,32.49,35.98l285.43,14.56L497.21,562.53z"/>
	<path class="st1" d="M497.21,562.53c0,0-82.6,8.17-137.25,1.48c-28.56-3.5-53.25,19.67-51.97,48.41
		c2.28,51.22,14.48,111.03,36.73,117.24C381.3,739.88,497.21,562.53,497.21,562.53z"/>
	<path class="st2" d="M198.52,320.22l-25.61-1.25c-10.94-0.54-19.38-9.84-18.84-20.78l1.25-25.61c0.54-10.94,9.84-19.38,20.78-18.84
		l25.61,1.25c10.94,0.54,19.38,9.84,18.84,20.78l-1.25,25.61C218.77,312.32,209.46,320.76,198.52,320.22z"/>
	<path class="st2" d="M193.43,424.12l-25.61-1.25c-10.94-0.54-19.38-9.84-18.84-20.78l1.25-25.61c0.54-10.94,9.84-19.38,20.78-18.84
		l25.61,1.25c10.94,0.54,19.38,9.84,18.84,20.78l-1.25,25.61C213.68,416.22,204.37,424.65,193.43,424.12z"/>
	<path class="st2" d="M188.33,528.27l-25.61-1.25c-10.94-0.54-19.38-9.84-18.84-20.78l1.25-25.61c0.54-10.94,9.84-19.38,20.78-18.84
		l25.61,1.25c10.94,0.54,19.38,9.84,18.84,20.78l-1.25,25.61C208.58,520.37,199.27,528.8,188.33,528.27z"/>
	<g>
		<g>
			<path class="st1" d="M58.69,647.3c1.76,5.01,3.51,10.03,5.27,15.04c0.43,1.24,1.14,2.31,2.3,2.99c1.07,0.63,2.65,0.89,3.85,0.5
				c2.43-0.79,4.42-3.51,3.49-6.15c-1.76-5.01-3.51-10.03-5.27-15.04c-0.43-1.24-1.14-2.31-2.3-2.99c-1.07-0.63-2.65-0.89-3.85-0.5
				C59.75,641.94,57.77,644.66,58.69,647.3L58.69,647.3z"/>
		</g>
	</g>
	<g>
		<g>
			<path class="st1" d="M90.82,636.35c0.03,5.5,0.81,11.05,2.34,16.34c0.73,2.51,3.56,4.33,6.15,3.49c2.55-0.83,4.27-3.46,3.49-6.15
				c-0.74-2.58-1.3-5.2-1.67-7.85c0.06,0.44,0.12,0.89,0.18,1.33c-0.32-2.37-0.48-4.76-0.49-7.15c-0.01-2.61-2.29-5.12-5-5
				C93.12,631.48,90.81,633.55,90.82,636.35L90.82,636.35z"/>
		</g>
	</g>
	<g>
		<g>
			<path class="st1" d="M62.07,684.19c8.26,1.31,16.52,2.63,24.78,3.94c2.04,0.33,4.09,0.65,6.13,0.98
				c2.41,0.38,4.84,0.96,7.27,0.42c4.73-1.05,6.36-6.13,8.25-9.98c2.1-4.28,4.2-8.56,6.3-12.83c1.15-2.34,0.71-5.52-1.79-6.84
				c-2.25-1.19-5.61-0.71-6.84,1.79c-2.17,4.43-4.34,8.85-6.52,13.28c-0.58,1.18-1.16,2.36-1.74,3.54c-0.2,0.41-0.4,0.83-0.61,1.23
				c-0.17,0.34-1.1,1.43-0.28,0.6c0.27-0.25,0.58-0.42,0.93-0.51c-0.55,0.13-0.48,0.12,0.22-0.02c-0.26,0-0.51-0.01-0.77-0.03
				c0.63,0.1,0.75,0.11,0.38,0.06c-1.21-0.2-2.42-0.38-3.62-0.58c-9.81-1.56-19.63-3.12-29.44-4.68c-2.57-0.41-5.51,0.66-6.15,3.49
				C58.03,680.44,59.3,683.75,62.07,684.19L62.07,684.19z"/>
		</g>
	</g>
	<g>
		<g>
			<path class="st3" d="M487.91,101.25c8.59-0.04,15.55,6.84,15.57,15.4c0.02,8.49-6.94,15.52-15.44,15.59
				c-8.63,0.06-15.64-6.93-15.61-15.57C472.46,108,479.2,101.29,487.91,101.25z"/>
			<path class="st3" d="M423.63,137.73c8.24,0.02,15.01,6.75,15.04,14.97c0.03,8.1-6.89,15.01-15.04,15.01
				c-8.28,0-15.02-6.86-14.98-15.23C408.69,144.4,415.49,137.71,423.63,137.73z"/>
			<path class="st3" d="M465.88,126.15c-0.02,8.26-6.81,15.01-15.01,14.94c-8.29-0.08-14.88-6.77-14.84-15.07
				c0.04-8.34,6.68-14.92,15-14.88C459.35,111.17,465.91,117.81,465.88,126.15z"/>
			<path class="st3" d="M427.61,189.44c0.03,7.88-6.37,14.39-14.17,14.4c-7.96,0.01-14.52-6.42-14.6-14.29
				c-0.07-8.07,6.35-14.52,14.47-14.53C421.32,175.01,427.58,181.32,427.61,189.44z"/>
			<path class="st3" d="M449.17,239.43c8.35,0.06,14.52,6.2,14.48,14.4c-0.04,7.91-6.6,14.39-14.48,14.32
				c-7.95-0.07-14.43-6.76-14.33-14.79C434.93,245.63,441.37,239.38,449.17,239.43z"/>
			<path class="st3" d="M437.04,226.41c-0.04,8.02-6.42,14.38-14.42,14.36c-7.93-0.02-14.4-6.51-14.4-14.45
				c0-7.85,6.64-14.44,14.49-14.37C430.73,212.02,437.08,218.42,437.04,226.41z"/>
			<path class="st3" d="M485.8,277.28c-7.24-0.06-13.21-6.06-13.18-13.24c0.03-7.28,6.12-13.3,13.42-13.28
				c7.38,0.02,13.23,5.99,13.18,13.43C499.16,271.62,493.3,277.34,485.8,277.28z"/>
			<path class="st3" d="M510.75,254.73c0.03-6.75,5.55-12.3,12.24-12.3c6.57,0,12.29,5.81,12.2,12.38
				c-0.1,6.59-5.72,12.11-12.28,12.06C516.31,266.83,510.72,261.24,510.75,254.73z"/>
			<path class="st3" d="M550.16,239.06c-5.99,0.01-11.01-5.05-10.99-11.06c0.03-6.06,4.97-10.93,11.11-10.95
				c6.1-0.01,11.1,4.93,11.08,10.96C561.35,234.16,556.39,239.04,550.16,239.06z"/>
			<path class="st3" d="M560.56,200.11c-5.11-0.09-8.74-3.9-8.66-9.07c0.07-4.7,4.19-8.69,8.84-8.56c4.85,0.13,8.85,4.22,8.76,8.96
				C569.4,196.32,565.41,200.19,560.56,200.11z"/>
			<path class="st3" d="M544.69,154.35c-0.15-3.33,2.87-6.39,6.49-6.57c3.39-0.17,6.57,2.86,6.71,6.42c0.14,3.41-2.9,6.65-6.35,6.77
				C547.73,161.08,544.86,158.32,544.69,154.35z"/>
			<path class="st3" d="M528.95,126.94c0.05,2.49-1.76,4.4-4.2,4.43c-2.39,0.03-4.42-1.86-4.51-4.19c-0.09-2.29,1.92-4.38,4.28-4.45
				C526.96,122.64,528.9,124.49,528.95,126.94z"/>
		</g>
	</g>
</g>
<g>
	<g>
		<path class="st1" d="M249.14,274.64l-0.33,6.7c-0.36,7.27-1.19,13.78-2.51,19.51c-0.04,0.11-0.1,0.16-0.17,0.16l-4.27-1.1
			c-0.04,0-0.07-0.04-0.11-0.12c1.27-5.56,2.07-11.79,2.41-18.69l0.33-6.7c0.01-0.11,0.06-0.16,0.17-0.16l4.32,0.21
			C249.09,274.47,249.14,274.53,249.14,274.64z M257.98,266.25l-2.47,50.52c-0.01,0.11-0.05,0.16-0.12,0.16l-5.31-0.26
			c-0.11,0-0.16-0.06-0.16-0.17l2.47-50.52c0-0.07,0.06-0.11,0.17-0.1l5.31,0.26C257.95,266.14,257.98,266.18,257.98,266.25z
			 M259.91,277.77l4.82,6.89c0.03,0.08,0.03,0.13-0.01,0.17l-4.1,3.24c-0.04,0.07-0.1,0.07-0.17-0.01l-4.82-6.89
			c-0.03-0.08-0.03-0.13,0.01-0.17l4.1-3.24C259.79,277.69,259.84,277.69,259.91,277.77z M292.78,312.39l-0.25,5.2
			c0,0.07-0.06,0.11-0.17,0.1l-32.04-1.57c-0.11-0.01-0.16-0.04-0.16-0.12l0.25-5.2c0-0.11,0.06-0.16,0.17-0.16l32.04,1.57
			C292.73,312.22,292.78,312.28,292.78,312.39z M292.17,293.16l-0.25,5.2c0,0.07-0.06,0.11-0.17,0.1l-28.89-1.42
			c-0.11,0-0.16-0.04-0.16-0.12l0.25-5.2c0-0.11,0.06-0.16,0.17-0.16l28.89,1.42C292.12,293,292.17,293.05,292.17,293.16z
			 M268.88,269.06l-0.28,5.76l25.35,1.24c0.11,0.01,0.16,0.06,0.16,0.17l-0.25,5.2c0,0.07-0.06,0.11-0.17,0.1l-30.55-1.5l-0.11-0.01
			l0.01-0.11l0.54-11.12c0-0.07,0.04-0.11,0.12-0.1l5.09,0.25C268.85,268.95,268.89,268.98,268.88,269.06z M282.05,267.43
			l-2.29,46.76c0,0.11-0.04,0.17-0.12,0.16l-5.42-0.27c-0.11-0.01-0.16-0.06-0.16-0.17l2.29-46.76c0-0.07,0.06-0.11,0.17-0.1
			l5.42,0.27C282.02,267.32,282.06,267.35,282.05,267.43z"/>
		<path class="st1" d="M313.65,287.11l-0.47,9.68c-0.25,5.06-1.48,9.34-3.68,12.86c-2.21,3.52-5.71,6.66-10.5,9.42
			c-0.07,0-0.15-0.04-0.21-0.12l-2.55-4.56c-0.04-0.04-0.01-0.09,0.06-0.17c2.78-1.53,4.96-3.11,6.56-4.75s2.76-3.48,3.49-5.51
			c0.73-2.04,1.16-4.51,1.31-7.43l0.47-9.68c0-0.11,0.06-0.16,0.17-0.16l5.2,0.25C313.6,286.94,313.66,287,313.65,287.11z
			 M325.68,296.3l-1.14,23.19c-0.01,0.11-0.06,0.16-0.17,0.16l-9.85-0.48c-0.11,0-0.16-0.06-0.16-0.17l0.25-5.2
			c0-0.11,0.06-0.16,0.17-0.16l4.48,0.22l0.61-12.45l-21.36-1.05c-0.11-0.01-0.16-0.04-0.16-0.12l0.25-5.2
			c0-0.11,0.06-0.16,0.17-0.16l26.73,1.31C325.63,296.19,325.69,296.23,325.68,296.3z M301.77,269.25c0.04-0.01,0.08-0.02,0.11-0.02
			l24.07,1.18c0.04,0,0.07,0.01,0.11,0.03c0.04,0.02,0.05,0.05,0.05,0.09l-0.96,19.59c0,0.04-0.02,0.06-0.06,0.08
			c-0.04,0.02-0.08,0.02-0.11,0.02l-24.07-1.18c-0.04,0-0.07-0.01-0.11-0.03c-0.04-0.02-0.05-0.05-0.05-0.09l0.96-19.59
			C301.71,269.3,301.73,269.27,301.77,269.25z M320.21,275.56l-13.12-0.64l-0.44,8.96l13.12,0.64L320.21,275.56z M336.64,274.1
			l-1.7,34.64c0,0.11-0.06,0.16-0.17,0.16l-5.2-0.25c-0.11,0-0.16-0.06-0.16-0.17l1.7-34.64c0.01-0.11,0.06-0.16,0.17-0.16l5.2,0.25
			C336.6,273.93,336.65,273.99,336.64,274.1z M348.68,270.75l-2.44,49.86c0,0.07-0.04,0.11-0.12,0.11l-11.29-0.55
			c-0.11-0.01-0.16-0.06-0.16-0.17l0.28-5.64c0-0.07,0.06-0.11,0.17-0.1l5.81,0.28l2.16-44.05c0-0.07,0.04-0.11,0.12-0.1l5.31,0.26
			C348.63,270.63,348.68,270.67,348.68,270.75z"/>
	</g>
</g>
<g>
	<g>
		<path class="st1" d="M286.67,416.73l-0.23,4.7c0,0.07-0.04,0.11-0.12,0.1l-49.14-2.41c-0.07,0-0.11-0.04-0.1-0.12l0.23-4.7
			c0-0.07,0.04-0.11,0.12-0.11l49.14,2.41C286.64,416.62,286.67,416.66,286.67,416.73z M284.45,407.75l-0.22,4.43
			c-0.01,0.11-0.06,0.16-0.18,0.16l-43.72-2.14c-0.11,0-0.16-0.06-0.16-0.17l0.22-4.43c0-0.11,0.06-0.16,0.17-0.16l43.72,2.14
			C284.4,407.58,284.45,407.64,284.45,407.75z M246.5,394.29l-0.11,2.32l39.57,1.94c0.07,0,0.11,0.04,0.1,0.12l-0.23,4.65
			c0,0.07-0.04,0.11-0.11,0.11l-45.05-2.21c-0.04,0-0.07-0.01-0.08-0.03c-0.02-0.02-0.03-0.05-0.02-0.08l0.35-7.08
			c0.01-0.11,0.06-0.16,0.18-0.16l5.31,0.26C246.47,394.13,246.5,394.18,246.5,394.29z M243.45,370.35l41.39,2.03
			c0.11,0.01,0.16,0.06,0.16,0.17l-1.03,21.08c0,0.07-0.06,0.11-0.17,0.1l-41.39-2.03c-0.08,0-0.11-0.04-0.11-0.12l1.03-21.08
			C243.34,370.4,243.38,370.35,243.45,370.35z M281.77,380.77l-0.21,4.32c0,0.07-0.04,0.11-0.12,0.1l-35.86-1.76
			c-0.07,0-0.11-0.04-0.11-0.12l0.21-4.32c0-0.07,0.04-0.11,0.12-0.11l35.86,1.76C281.74,380.65,281.78,380.69,281.77,380.77z
			 M279.19,376.92l-30.49-1.49l-0.58,11.79l30.49,1.49L279.19,376.92z M266.3,394.27l-1.16,23.63c-0.01,0.11-0.06,0.16-0.17,0.16
			l-5.42-0.27c-0.07,0-0.11-0.06-0.1-0.17l1.16-23.63c0.01-0.11,0.05-0.16,0.12-0.16l5.42,0.27
			C266.25,394.1,266.31,394.16,266.3,394.27z"/>
		<path class="st1" d="M343.94,377.77l-0.24,4.98c0,0.11-0.04,0.16-0.12,0.16l-40.95-2.01l-0.86,17.54
			c-0.45,9.22-2.73,17.19-6.83,23.91c-0.04,0.07-0.1,0.09-0.17,0.05l-4.42-2.66c-0.07-0.04-0.09-0.1-0.05-0.17
			c3.65-5.89,5.69-13.02,6.1-21.39l1.11-22.75c0-0.07,0.04-0.11,0.12-0.1l46.21,2.26C343.91,377.6,343.94,377.65,343.94,377.77z
			 M342.26,418.84l-0.24,4.87c-0.01,0.11-0.06,0.16-0.17,0.16l-40.23-1.97c-0.11,0-0.16-0.06-0.16-0.17l0.24-4.87
			c0.01-0.11,0.06-0.16,0.17-0.16l40.23,1.97C342.21,418.67,342.27,418.73,342.26,418.84z M313.9,385.17l-0.38,7.8
			c-0.01,0.11-0.03,0.2-0.07,0.27l-6.74,9.54c-0.11,0.07-0.19,0.07-0.22-0.01l-3.97-2.75c-0.07-0.08-0.07-0.15,0.01-0.22l5.96-8.47
			l0.31-6.42c0-0.07,0.06-0.11,0.17-0.1l4.76,0.23C313.85,385.06,313.9,385.1,313.9,385.17z M340.69,407.84l-0.23,4.76
			c-0.01,0.11-0.06,0.16-0.17,0.16l-36.03-1.76c-0.11-0.01-0.16-0.06-0.16-0.17l0.23-4.76c0-0.11,0.06-0.16,0.17-0.16l36.03,1.76
			C340.64,407.67,340.7,407.73,340.69,407.84z M313.33,391.08l5.36,9.53c0.07,0.08,0.07,0.15-0.01,0.22l-4.22,2.35
			c-0.04,0.07-0.11,0.07-0.22-0.01l-5.36-9.53c-0.07-0.08-0.07-0.15,0.01-0.22l4.22-2.34C313.15,391,313.22,391,313.33,391.08z
			 M324.11,373.69l-0.27,5.48c0,0.07-0.06,0.11-0.17,0.1l-5.48-0.27c-0.07,0-0.11-0.04-0.11-0.12l0.27-5.53
			c0-0.07,0.04-0.11,0.12-0.1l5.48,0.27C324.07,373.52,324.12,373.58,324.11,373.69z M326.43,384.17l-1.77,36.14
			c0,0.07-0.04,0.11-0.12,0.11l-5.2-0.25c-0.07,0-0.11-0.04-0.11-0.12l1.77-36.14c0-0.07,0.04-0.11,0.12-0.1l5.2,0.25
			C326.4,384.06,326.43,384.1,326.43,384.17z M338.36,386.37l-0.38,7.8c-0.01,0.11-0.03,0.2-0.07,0.28l-6.74,9.54
			c-0.11,0.07-0.19,0.07-0.22-0.01l-3.97-2.75c-0.07-0.08-0.07-0.15,0.01-0.22l5.96-8.47l0.31-6.42c0-0.07,0.06-0.11,0.17-0.1
			l4.76,0.23C338.31,386.25,338.36,386.29,338.36,386.37z M337.79,392.27l5.36,9.53c0.07,0.08,0.07,0.15-0.01,0.22l-4.22,2.34
			c-0.04,0.07-0.11,0.07-0.22-0.01l-5.36-9.53c-0.07-0.08-0.07-0.15,0.01-0.22l4.22-2.35C337.61,392.19,337.68,392.2,337.79,392.27z
			"/>
	</g>
</g>
<g>
	<g>
		<path class="st1" d="M277.29,520.45c-0.02,0-0.07,0-0.14-0.01l-5.98-0.29c-0.08,0-0.11-0.04-0.11-0.12l1.34-27.28l-14.73,26.68
			c0.04,0.04,0.03,0.06,0,0.06c-0.04,0-0.09,0-0.17-0.01l-4.26-0.21c-0.04,0-0.07,0-0.11,0c-0.04,0-0.05-0.02-0.05-0.06
			l-12.05-27.99l-1.34,27.28c0,0.07-0.01,0.11-0.03,0.11c-0.02,0-0.05,0-0.08,0l-5.98-0.29c-0.04,0-0.06,0-0.08,0
			s-0.03-0.04-0.02-0.11l2-40.79c0-0.07,0.01-0.11,0.03-0.11s0.05,0,0.08,0l5.59,0.27c0.07,0,0.11,0.02,0.11,0.06l14.5,33.55
			l17.65-31.97c0-0.04,0.06-0.05,0.17-0.05l5.59,0.27c0.04,0,0.06,0,0.08,0c0.02,0,0.03,0.04,0.02,0.11l-2,40.79
			C277.32,520.42,277.31,520.45,277.29,520.45z"/>
		<path class="st1" d="M285.79,520.81l2-40.9c0.04-0.04,0.08-0.05,0.11-0.05l6.09,0.3l-2.01,41.01l-6.09-0.3
			C285.86,520.87,285.82,520.85,285.79,520.81z M291.13,496.72l8.74,0.43c2.14,0.11,3.78-0.3,4.91-1.23
			c1.14-0.92,1.75-2.22,1.83-3.88c0.05-1.11-0.14-2.06-0.58-2.86c-0.44-0.8-1.13-1.42-2.07-1.88c-0.94-0.45-2.13-0.71-3.57-0.79
			l-7.75-0.38l0.3-6.03l7.75,0.38c2.36,0.12,4.49,0.72,6.37,1.81c1.89,1.09,3.35,2.51,4.39,4.26c1.04,1.75,1.51,3.68,1.41,5.78
			c-0.1,2.07-0.75,3.88-1.96,5.45c-1.21,1.57-2.79,2.74-4.75,3.51c-1.96,0.77-4.14,1.1-6.54,0.98l-8.74-0.43L291.13,496.72z
			 M291.23,515.09l8.8,0.43c1.51,0.07,2.86-0.14,4.05-0.63c1.19-0.5,2.13-1.24,2.83-2.22c0.69-0.98,1.07-2.06,1.13-3.25
			c0.06-1.18-0.21-2.3-0.81-3.37c-0.59-1.06-1.46-1.93-2.59-2.6c-1.13-0.67-2.46-1.04-3.97-1.11l-9.08-0.44l0.25-5.15l9.08,0.44
			c2.43,0.12,4.7,0.75,6.79,1.89c2.09,1.14,3.73,2.64,4.94,4.51c1.2,1.87,1.75,3.91,1.64,6.13c-0.11,2.21-0.86,4.25-2.24,6.1
			c-1.39,1.86-3.18,3.3-5.37,4.34c-2.2,1.04-4.51,1.5-6.95,1.38l-8.8-0.43L291.23,515.09z"/>
		<path class="st1" d="M347.84,482.8l-0.01,0.11l-0.28,5.76c0,0.07-0.01,0.12-0.01,0.14s-0.04,0.03-0.11,0.02l-29.05-1.42
			c-0.08,0-0.11-0.01-0.11-0.03s0-0.06,0.01-0.14l0.28-5.76l0.01-0.11l0.11,0l29.05,1.42L347.84,482.8z M334.32,523.24l-0.11,0
			l-5.98-0.29l-0.11,0l0-0.11l1.87-38.13l6.2,0.3l-1.87,38.13L334.32,523.24z"/>
		<path class="st1" d="M357.09,524.36c-0.02,0-0.05,0-0.08,0l-5.98-0.29c-0.04,0-0.06,0-0.08,0s-0.03-0.04-0.02-0.11l2-40.79
			c0-0.07,0.01-0.11,0.03-0.11s0.05,0,0.08,0l5.98,0.29c0.04,0,0.06,0,0.08,0c0.02,0,0.03,0.04,0.02,0.11l-2,40.79
			C357.12,524.32,357.11,524.36,357.09,524.36z"/>
	</g>
</g>
<g>
	<g>
		<path class="st3" d="M165.76,271.41c4.82,10.3,9.64,20.6,14.45,30.89c0.73,1.55,2.68,2.48,4.32,2.48c1.85,0,3.31-0.99,4.32-2.48
			c2.74-4.07,5.57-8.08,8.49-12.02c0.73-0.99,1.46-1.97,2.2-2.95c0.28-0.37,0.56-0.73,0.83-1.1c0.1-0.14,1.23-1.6,0.62-0.81
			c1.5-1.94,3.02-3.86,4.57-5.77c6.08-7.5,12.49-14.74,19.19-21.69c1.82-1.88,2.01-5.22,0-7.07c-1.97-1.8-5.13-2.01-7.07,0
			c-13.8,14.32-26.34,29.87-37.47,46.36c2.88,0,5.76,0,8.63,0c-4.82-10.3-9.64-20.6-14.45-30.89c-1.11-2.38-4.71-3.16-6.84-1.79
			C165.11,266.15,164.58,268.87,165.76,271.41L165.76,271.41z"/>
	</g>
</g>
<g>
	<g>
		<path class="st3" d="M165.76,377.65c4.82,10.3,9.64,20.6,14.45,30.89c0.73,1.55,2.68,2.48,4.32,2.48c1.85,0,3.31-0.99,4.32-2.48
			c2.74-4.07,5.57-8.08,8.49-12.02c0.73-0.99,1.46-1.97,2.2-2.95c0.28-0.37,0.56-0.73,0.83-1.1c0.1-0.14,1.23-1.6,0.62-0.81
			c1.5-1.94,3.02-3.86,4.57-5.77c6.08-7.5,12.49-14.74,19.19-21.69c1.82-1.88,2.01-5.22,0-7.07c-1.97-1.8-5.13-2.01-7.07,0
			c-13.8,14.32-26.34,29.87-37.47,46.36c2.88,0,5.76,0,8.63,0c-4.82-10.3-9.64-20.6-14.45-30.89c-1.11-2.38-4.71-3.16-6.84-1.79
			C165.11,372.38,164.58,375.11,165.76,377.65L165.76,377.65z"/>
	</g>
</g>
<g>
	<g>
		<path class="st3" d="M156.24,482.38c4.82,10.3,9.64,20.6,14.45,30.89c0.73,1.55,2.68,2.48,4.32,2.48c1.85,0,3.31-0.99,4.32-2.48
			c2.74-4.07,5.57-8.08,8.49-12.02c0.73-0.99,1.46-1.97,2.2-2.95c0.28-0.37,0.56-0.73,0.83-1.1c0.1-0.14,1.23-1.6,0.62-0.81
			c1.5-1.94,3.02-3.86,4.57-5.77c6.08-7.5,12.49-14.74,19.19-21.69c1.82-1.88,2.01-5.22,0-7.07c-1.97-1.8-5.13-2.01-7.07,0
			c-13.8,14.32-26.34,29.87-37.47,46.36c2.88,0,5.76,0,8.63,0c-4.82-10.3-9.64-20.6-14.45-30.89c-1.11-2.38-4.71-3.16-6.84-1.79
			C155.59,477.12,155.05,479.84,156.24,482.38L156.24,482.38z"/>
	</g>
</g>
</svg>
