<svg xmlns="http://www.w3.org/2000/svg" width="256" height="256" viewBox="0 0 256 256">
  <rect width="256" height="256" fill="none"/>
  <circle cx="128" cy="128" r="96" fill="#F9F3E5" opacity="0.2"/>
  <path d="M128,24A104,104,0,1,0,232,128,104.11,104.11,0,0,0,128,24Zm49.5,85.75-58.5,56a8,8,0,0,1-11.18-.18l-29.5-30.5a8,8,0,0,1,11.36-11l23.72,24.52L166,98.25a8,8,0,1,1,11.5,11.5Z" fill="#7B9E89"/>
  <path d="M184,88a8,8,0,0,1,.73,11.27l-58.5,64a8,8,0,0,1-5.9,2.73,7.94,7.94,0,0,1-5.83-2.55L84.73,128.73a8,8,0,1,1,11.27-11.46L113.45,137,166,88.73A8,8,0,0,1,184,88Z" fill="#E8C4C4"/>
  <path d="M128,40a88,88,0,1,1-88,88,88.1,88.1,0,0,1,88-88m0-16A104,104,0,1,0,232,128,104.11,104.11,0,0,0,128,24Z" fill="#7B9E89"/>
</svg>
