<?xml version="1.0" encoding="utf-8"?>
<!-- Generator: Adobe Illustrator 28.3.0, SVG Export Plug-In . SVG Version: 6.00 Build 0)  -->
<svg version="1.1" id="图层_1" xmlns="http://www.w3.org/2000/svg" xmlns:xlink="http://www.w3.org/1999/xlink" x="0px" y="0px"
	 viewBox="0 0 595.28 841.89" style="enable-background:new 0 0 595.28 841.89;" xml:space="preserve">
<style type="text/css">
	.st0{fill:url(#SVGID_1_);}
	.st1{fill:#FFFCF2;}
	.st2{fill:none;stroke:#FFFCF2;stroke-width:7;stroke-miterlimit:10;}
	.st3{fill:#FF5252;}
</style>
<g>
	<linearGradient id="SVGID_1_" gradientUnits="userSpaceOnUse" x1="46.6945" y1="615.6484" x2="525.6747" y2="62.886">
		<stop  offset="0.2577" style="stop-color:#7B9E89"/>
		<stop  offset="1" style="stop-color:#F8F2E4"/>
	</linearGradient>
	<path class="st0" d="M497.5,562.49l19.78-387.66c0.96-18.91-13.58-35.01-32.49-35.98L90,118.71
		c-18.91-0.96-35.01,13.58-35.98,32.49L27.09,679.08c-0.96,18.91,13.58,35.01,32.49,35.98l285.43,14.56L497.5,562.49z"/>
	<path class="st1" d="M497.5,562.49c0,0-82.6,8.17-137.25,1.48c-28.56-3.5-53.25,19.67-51.97,48.41
		c2.28,51.22,14.48,111.03,36.73,117.24C381.58,739.84,497.5,562.49,497.5,562.49z"/>
	<path class="st2" d="M198.81,320.18l-25.61-1.25c-10.94-0.54-19.38-9.84-18.84-20.78l1.25-25.61c0.54-10.94,9.84-19.38,20.78-18.84
		l25.61,1.25c10.94,0.54,19.38,9.84,18.84,20.78l-1.25,25.61C219.05,312.28,209.75,320.72,198.81,320.18z"/>
	<path class="st2" d="M193.72,424.08l-25.61-1.25c-10.94-0.54-19.38-9.84-18.84-20.78l1.25-25.61c0.54-10.94,9.84-19.38,20.78-18.84
		l25.61,1.25c10.94,0.54,19.38,9.84,18.84,20.78l-1.25,25.61C213.97,416.18,204.66,424.61,193.72,424.08z"/>
	<path class="st2" d="M188.62,528.23l-25.61-1.25c-10.94-0.54-19.38-9.84-18.84-20.78l1.25-25.61c0.54-10.94,9.84-19.38,20.78-18.84
		l25.61,1.25c10.94,0.54,19.38,9.84,18.84,20.78l-1.25,25.61C208.87,520.33,199.56,528.76,188.62,528.23z"/>
	<g>
		<g>
			<path class="st1" d="M58.98,647.26c1.76,5.01,3.51,10.03,5.27,15.04c0.43,1.24,1.14,2.31,2.3,2.99c1.07,0.63,2.65,0.89,3.85,0.5
				c2.43-0.79,4.42-3.51,3.49-6.15c-1.76-5.01-3.51-10.03-5.27-15.04c-0.43-1.24-1.14-2.31-2.3-2.99c-1.07-0.63-2.65-0.89-3.85-0.5
				C60.04,641.9,58.05,644.62,58.98,647.26L58.98,647.26z"/>
		</g>
	</g>
	<g>
		<g>
			<path class="st1" d="M91.11,636.31c0.03,5.5,0.81,11.05,2.34,16.34c0.73,2.51,3.56,4.33,6.15,3.49c2.55-0.83,4.27-3.46,3.49-6.15
				c-0.74-2.58-1.3-5.2-1.67-7.85c0.06,0.44,0.12,0.89,0.18,1.33c-0.32-2.37-0.48-4.76-0.49-7.15c-0.01-2.61-2.29-5.12-5-5
				C93.41,631.44,91.1,633.51,91.11,636.31L91.11,636.31z"/>
		</g>
	</g>
	<g>
		<g>
			<path class="st1" d="M62.35,684.15c8.26,1.31,16.52,2.63,24.78,3.94c2.04,0.33,4.09,0.65,6.13,0.98
				c2.41,0.38,4.84,0.96,7.27,0.42c4.73-1.05,6.36-6.13,8.25-9.98c2.1-4.28,4.2-8.56,6.3-12.83c1.15-2.34,0.71-5.52-1.79-6.84
				c-2.25-1.19-5.61-0.71-6.84,1.79c-2.17,4.43-4.34,8.85-6.52,13.28c-0.58,1.18-1.16,2.36-1.74,3.54c-0.2,0.41-0.4,0.83-0.61,1.23
				c-0.17,0.34-1.1,1.43-0.28,0.6c0.27-0.25,0.58-0.42,0.93-0.51c-0.55,0.13-0.48,0.12,0.22-0.02c-0.26,0-0.51-0.01-0.77-0.03
				c0.63,0.1,0.75,0.11,0.38,0.06c-1.21-0.2-2.42-0.38-3.62-0.58c-9.81-1.56-19.63-3.12-29.44-4.68c-2.57-0.41-5.51,0.66-6.15,3.49
				C58.32,680.4,59.59,683.71,62.35,684.15L62.35,684.15z"/>
		</g>
	</g>
	<g>
		<g>
			<path class="st3" d="M488.2,101.21c8.59-0.04,15.55,6.84,15.57,15.4c0.02,8.49-6.94,15.52-15.44,15.59
				c-8.63,0.06-15.64-6.93-15.61-15.57C472.74,107.96,479.48,101.25,488.2,101.21z"/>
			<path class="st3" d="M423.92,137.69c8.24,0.02,15.01,6.75,15.04,14.97c0.03,8.1-6.89,15.01-15.04,15.01
				c-8.28,0-15.02-6.86-14.98-15.23C408.98,144.36,415.78,137.67,423.92,137.69z"/>
			<path class="st3" d="M466.17,126.11c-0.02,8.26-6.81,15.01-15.01,14.94c-8.29-0.08-14.88-6.77-14.84-15.07
				c0.04-8.34,6.68-14.92,15-14.88C459.64,111.13,466.19,117.77,466.17,126.11z"/>
			<path class="st3" d="M427.89,189.4c0.03,7.88-6.37,14.39-14.17,14.4c-7.96,0.01-14.52-6.42-14.6-14.29
				c-0.07-8.07,6.35-14.52,14.47-14.53C421.61,174.97,427.86,181.28,427.89,189.4z"/>
			<path class="st3" d="M449.46,239.39c8.35,0.06,14.52,6.2,14.48,14.4c-0.04,7.91-6.6,14.39-14.48,14.32
				c-7.95-0.07-14.43-6.76-14.33-14.79C435.22,245.59,441.66,239.33,449.46,239.39z"/>
			<path class="st3" d="M437.33,226.37c-0.04,8.02-6.42,14.38-14.42,14.36c-7.93-0.02-14.4-6.51-14.4-14.45
				c0-7.85,6.64-14.44,14.49-14.37C431.02,211.98,437.36,218.38,437.33,226.37z"/>
			<path class="st3" d="M486.09,277.24c-7.24-0.06-13.21-6.06-13.18-13.24c0.03-7.28,6.12-13.3,13.42-13.28
				c7.38,0.02,13.23,5.99,13.18,13.43C499.44,271.58,493.59,277.3,486.09,277.24z"/>
			<path class="st3" d="M511.04,254.69c0.03-6.75,5.55-12.3,12.24-12.3c6.57,0,12.29,5.81,12.2,12.38
				c-0.1,6.59-5.72,12.11-12.28,12.06C516.6,266.79,511.01,261.2,511.04,254.69z"/>
			<path class="st3" d="M550.45,239.02c-5.99,0.01-11.01-5.05-10.99-11.06c0.03-6.06,4.97-10.93,11.11-10.95
				c6.1-0.01,11.1,4.93,11.08,10.96C561.64,234.12,556.68,239,550.45,239.02z"/>
			<path class="st3" d="M560.84,200.07c-5.11-0.09-8.74-3.9-8.66-9.07c0.07-4.7,4.19-8.69,8.84-8.56c4.85,0.13,8.85,4.22,8.76,8.96
				C569.68,196.28,565.69,200.15,560.84,200.07z"/>
			<path class="st3" d="M544.97,154.31c-0.15-3.33,2.87-6.39,6.49-6.57c3.39-0.17,6.57,2.86,6.71,6.42c0.14,3.41-2.9,6.65-6.35,6.77
				C548.01,161.04,545.15,158.28,544.97,154.31z"/>
			<path class="st3" d="M529.23,126.9c0.05,2.49-1.76,4.4-4.2,4.43c-2.39,0.03-4.42-1.86-4.51-4.19c-0.09-2.29,1.92-4.38,4.28-4.45
				C527.25,122.6,529.19,124.45,529.23,126.9z"/>
		</g>
	</g>
</g>
<g>
	<g>
		<path class="st1" d="M249.5,274.58l-0.33,6.7c-0.36,7.27-1.19,13.77-2.51,19.51c-0.04,0.11-0.1,0.16-0.17,0.16l-4.27-1.1
			c-0.04,0-0.07-0.04-0.11-0.12c1.27-5.56,2.08-11.79,2.41-18.69l0.33-6.7c0.01-0.11,0.06-0.16,0.17-0.16l4.32,0.21
			C249.45,274.42,249.5,274.47,249.5,274.58z M258.34,266.2l-2.47,50.53c0,0.11-0.04,0.16-0.12,0.16l-5.31-0.26
			c-0.11-0.01-0.16-0.06-0.16-0.17l2.47-50.53c0-0.07,0.06-0.11,0.17-0.1l5.31,0.26C258.31,266.09,258.34,266.12,258.34,266.2z
			 M260.27,277.72l4.82,6.89c0.03,0.08,0.03,0.13-0.01,0.17l-4.1,3.24c-0.04,0.07-0.1,0.07-0.17-0.01l-4.82-6.89
			c-0.03-0.07-0.03-0.13,0.01-0.17l4.1-3.24C260.14,277.64,260.2,277.64,260.27,277.72z M293.13,312.33l-0.25,5.2
			c0,0.07-0.06,0.11-0.17,0.1l-32.04-1.57c-0.11-0.01-0.16-0.05-0.16-0.12l0.25-5.2c0.01-0.11,0.06-0.16,0.17-0.16l32.04,1.57
			C293.09,312.17,293.14,312.22,293.13,312.33z M292.52,293.11l-0.25,5.2c0,0.07-0.06,0.11-0.17,0.1L263.21,297
			c-0.11-0.01-0.16-0.04-0.16-0.12l0.25-5.2c0.01-0.11,0.06-0.16,0.17-0.16l28.89,1.41C292.47,292.94,292.53,293,292.52,293.11z
			 M269.24,269.01l-0.28,5.76L294.3,276c0.11,0,0.16,0.06,0.16,0.17l-0.25,5.2c0,0.07-0.06,0.11-0.17,0.1l-30.55-1.5l-0.11,0l0-0.11
			l0.54-11.12c0-0.07,0.04-0.11,0.12-0.11l5.09,0.25C269.21,268.89,269.24,268.93,269.24,269.01z M282.41,267.38l-2.29,46.76
			c-0.01,0.11-0.04,0.16-0.12,0.16l-5.42-0.27c-0.11,0-0.16-0.06-0.16-0.17l2.29-46.76c0-0.07,0.06-0.11,0.17-0.1l5.42,0.27
			C282.38,267.26,282.41,267.3,282.41,267.38z"/>
		<path class="st1" d="M314.01,287.06l-0.47,9.68c-0.25,5.06-1.47,9.34-3.68,12.86c-2.21,3.52-5.71,6.65-10.5,9.42
			c-0.07,0-0.15-0.04-0.22-0.12l-2.55-4.56c-0.04-0.04-0.02-0.09,0.06-0.16c2.77-1.53,4.96-3.11,6.56-4.75
			c1.6-1.64,2.76-3.48,3.49-5.51c0.73-2.04,1.16-4.51,1.31-7.43l0.47-9.68c0.01-0.11,0.06-0.16,0.18-0.16l5.2,0.25
			C313.96,286.89,314.01,286.95,314.01,287.06z M326.04,296.25l-1.13,23.19c-0.01,0.11-0.06,0.16-0.17,0.16l-9.85-0.48
			c-0.11-0.01-0.16-0.06-0.16-0.17l0.25-5.2c0.01-0.11,0.06-0.16,0.17-0.16l4.48,0.22l0.61-12.45l-21.36-1.05
			c-0.11,0-0.16-0.04-0.16-0.12l0.25-5.2c0.01-0.11,0.06-0.16,0.17-0.16l26.73,1.31C325.99,296.14,326.04,296.18,326.04,296.25z
			 M302.13,269.2c0.04-0.02,0.07-0.02,0.11-0.02l24.07,1.18c0.04,0,0.07,0.01,0.11,0.03c0.04,0.02,0.05,0.05,0.05,0.09l-0.96,19.59
			c0,0.04-0.02,0.06-0.06,0.08c-0.04,0.02-0.08,0.02-0.11,0.02l-24.07-1.18c-0.04,0-0.07-0.01-0.11-0.03
			c-0.04-0.02-0.05-0.05-0.05-0.09l0.96-19.59C302.07,269.25,302.09,269.22,302.13,269.2z M320.57,275.51l-13.12-0.64l-0.44,8.96
			l13.12,0.64L320.57,275.51z M337,274.04l-1.7,34.64c-0.01,0.11-0.06,0.16-0.17,0.16l-5.2-0.25c-0.11-0.01-0.16-0.06-0.16-0.17
			l1.7-34.64c0-0.11,0.06-0.16,0.17-0.16l5.2,0.25C336.96,273.87,337.01,273.93,337,274.04z M349.04,270.69l-2.44,49.86
			c0,0.07-0.04,0.11-0.12,0.1l-11.29-0.55c-0.11,0-0.16-0.06-0.16-0.17l0.28-5.64c0-0.07,0.06-0.11,0.17-0.1l5.81,0.28l2.16-44.05
			c0-0.07,0.04-0.11,0.12-0.11l5.31,0.26C348.99,270.58,349.04,270.62,349.04,270.69z"/>
	</g>
</g>
<g>
	<g>
		<path class="st1" d="M287.03,416.68l-0.23,4.7c0,0.07-0.04,0.11-0.12,0.11l-49.14-2.41c-0.07,0-0.11-0.04-0.11-0.12l0.23-4.7
			c0-0.07,0.04-0.11,0.12-0.11l49.14,2.41C287,416.57,287.03,416.61,287.03,416.68z M284.8,407.7l-0.22,4.43
			c0,0.11-0.06,0.16-0.17,0.16l-43.72-2.14c-0.11-0.01-0.16-0.06-0.16-0.17l0.22-4.43c0.01-0.11,0.06-0.16,0.17-0.16l43.72,2.14
			C284.76,407.53,284.81,407.59,284.8,407.7z M246.85,394.24l-0.11,2.32l39.57,1.94c0.07,0,0.11,0.04,0.11,0.12l-0.23,4.65
			c0,0.07-0.04,0.11-0.12,0.1l-45.05-2.21c-0.04,0-0.06-0.01-0.08-0.03c-0.02-0.02-0.03-0.05-0.02-0.08l0.35-7.08
			c0.01-0.11,0.06-0.16,0.17-0.16l5.31,0.26C246.82,394.08,246.86,394.13,246.85,394.24z M243.81,370.3l41.39,2.03
			c0.11,0,0.16,0.06,0.16,0.17l-1.03,21.08c0,0.08-0.06,0.11-0.17,0.1l-41.39-2.03c-0.07,0-0.11-0.04-0.1-0.12l1.03-21.08
			C243.7,370.35,243.74,370.29,243.81,370.3z M282.13,380.72l-0.21,4.32c0,0.07-0.04,0.11-0.12,0.1l-35.86-1.76
			c-0.07,0-0.11-0.04-0.1-0.12l0.21-4.32c0-0.07,0.04-0.11,0.12-0.1l35.86,1.76C282.1,380.6,282.14,380.64,282.13,380.72z
			 M279.55,376.87l-30.49-1.49l-0.58,11.79l30.49,1.49L279.55,376.87z M266.66,394.22l-1.16,23.63c0,0.11-0.06,0.16-0.17,0.16
			l-5.42-0.27c-0.07,0-0.11-0.06-0.1-0.17l1.16-23.63c0-0.11,0.04-0.16,0.12-0.16l5.42,0.27
			C266.61,394.05,266.66,394.1,266.66,394.22z"/>
		<path class="st1" d="M344.3,377.71l-0.24,4.98c-0.01,0.11-0.05,0.16-0.12,0.16l-40.95-2l-0.86,17.54
			c-0.45,9.22-2.73,17.19-6.83,23.91c-0.04,0.07-0.1,0.09-0.17,0.04l-4.42-2.66c-0.07-0.04-0.09-0.1-0.05-0.17
			c3.65-5.89,5.69-13.02,6.1-21.39l1.11-22.75c0-0.07,0.04-0.11,0.12-0.11l46.21,2.26C344.27,377.55,344.3,377.6,344.3,377.71z
			 M342.62,418.79l-0.24,4.87c0,0.11-0.06,0.16-0.17,0.16l-40.23-1.97c-0.11-0.01-0.16-0.06-0.16-0.17l0.24-4.87
			c0-0.11,0.06-0.16,0.17-0.16l40.23,1.97C342.57,418.62,342.62,418.68,342.62,418.79z M314.26,385.12l-0.38,7.8
			c0,0.11-0.03,0.2-0.07,0.27l-6.73,9.54c-0.11,0.07-0.19,0.07-0.22-0.01l-3.97-2.75c-0.07-0.08-0.07-0.15,0.01-0.22l5.96-8.47
			l0.31-6.42c0-0.07,0.06-0.11,0.17-0.1l4.76,0.23C314.21,385,314.26,385.04,314.26,385.12z M341.05,407.79l-0.23,4.76
			c-0.01,0.11-0.06,0.16-0.17,0.16l-36.03-1.76c-0.11,0-0.16-0.06-0.16-0.17l0.23-4.76c0.01-0.11,0.06-0.16,0.17-0.16l36.03,1.76
			C341,407.62,341.05,407.68,341.05,407.79z M313.69,391.03l5.36,9.53c0.07,0.08,0.07,0.15-0.01,0.22l-4.22,2.34
			c-0.04,0.07-0.11,0.07-0.22-0.01l-5.36-9.53c-0.07-0.08-0.07-0.15,0.01-0.22l4.22-2.35C313.51,390.94,313.58,390.95,313.69,391.03
			z M324.47,373.64l-0.27,5.48c0,0.07-0.06,0.11-0.17,0.1l-5.48-0.27c-0.07,0-0.11-0.04-0.11-0.12l0.27-5.53
			c0-0.07,0.04-0.11,0.12-0.1l5.48,0.27C324.42,373.47,324.48,373.53,324.47,373.64z M326.79,384.12l-1.77,36.14
			c0,0.07-0.04,0.11-0.12,0.11l-5.2-0.25c-0.07,0-0.11-0.04-0.11-0.12l1.77-36.14c0-0.07,0.04-0.11,0.12-0.11l5.2,0.25
			C326.75,384.01,326.79,384.05,326.79,384.12z M338.72,386.32l-0.38,7.8c0,0.11-0.03,0.2-0.07,0.27l-6.73,9.54
			c-0.11,0.07-0.19,0.07-0.22-0.01l-3.97-2.75c-0.07-0.08-0.07-0.15,0.01-0.22l5.96-8.47l0.31-6.42c0-0.07,0.06-0.11,0.17-0.1
			l4.76,0.23C338.67,386.2,338.72,386.24,338.72,386.32z M338.15,392.22l5.36,9.53c0.07,0.08,0.07,0.15-0.01,0.22l-4.22,2.35
			c-0.04,0.07-0.11,0.07-0.22-0.01l-5.36-9.53c-0.07-0.08-0.07-0.15,0.01-0.22l4.22-2.34C337.97,392.14,338.04,392.15,338.15,392.22
			z"/>
	</g>
</g>
<g>
	<g>
		<path class="st1" d="M277.65,520.4c-0.02,0-0.07,0-0.14-0.01l-5.98-0.29c-0.08,0-0.11-0.04-0.11-0.12l1.34-27.28l-14.73,26.68
			c0.03,0.04,0.03,0.06,0,0.06c-0.04,0-0.09,0-0.17-0.01l-4.26-0.21c-0.04,0-0.07,0-0.11-0.01c-0.04,0-0.05-0.02-0.05-0.06
			l-12.05-27.99l-1.34,27.28c0,0.07-0.02,0.11-0.03,0.11c-0.02,0-0.05,0-0.08,0l-5.98-0.29c-0.04,0-0.06,0-0.08,0
			s-0.03-0.04-0.02-0.11l2-40.79c0-0.07,0.01-0.11,0.03-0.11s0.05,0,0.08,0l5.59,0.27c0.07,0,0.11,0.02,0.11,0.06l14.5,33.55
			l17.65-31.97c0-0.04,0.06-0.05,0.17-0.05l5.59,0.27c0.04,0,0.06,0,0.08,0c0.02,0,0.03,0.04,0.02,0.11l-2,40.79
			C277.68,520.36,277.67,520.4,277.65,520.4z"/>
		<path class="st1" d="M286.15,520.76l2-40.9c0.04-0.04,0.08-0.05,0.11-0.05l6.09,0.3l-2.01,41.01l-6.09-0.3
			C286.22,520.82,286.18,520.8,286.15,520.76z M291.49,496.67l8.74,0.43c2.14,0.1,3.78-0.3,4.91-1.23c1.14-0.92,1.75-2.22,1.83-3.88
			c0.05-1.11-0.14-2.06-0.58-2.86c-0.44-0.8-1.13-1.42-2.07-1.88c-0.94-0.45-2.13-0.71-3.57-0.78l-7.75-0.38l0.29-6.03l7.75,0.38
			c2.36,0.12,4.49,0.72,6.37,1.81c1.89,1.09,3.35,2.51,4.4,4.26c1.04,1.75,1.51,3.68,1.41,5.78c-0.1,2.07-0.75,3.88-1.96,5.45
			c-1.21,1.57-2.79,2.74-4.75,3.51c-1.96,0.77-4.14,1.1-6.54,0.99l-8.74-0.43L291.49,496.67z M291.59,515.04l8.8,0.43
			c1.51,0.07,2.86-0.14,4.05-0.63c1.19-0.5,2.13-1.24,2.83-2.22c0.7-0.98,1.07-2.07,1.13-3.25s-0.21-2.3-0.81-3.37
			c-0.59-1.07-1.46-1.93-2.59-2.6c-1.13-0.67-2.45-1.04-3.97-1.11l-9.08-0.45l0.25-5.15l9.08,0.44c2.43,0.12,4.7,0.75,6.79,1.89
			c2.09,1.14,3.73,2.64,4.94,4.51c1.2,1.87,1.75,3.91,1.64,6.13c-0.11,2.21-0.85,4.25-2.24,6.1c-1.39,1.86-3.18,3.3-5.37,4.34
			c-2.2,1.04-4.51,1.5-6.95,1.38l-8.8-0.43L291.59,515.04z"/>
		<path class="st1" d="M348.19,482.75l0,0.11l-0.28,5.76c0,0.07-0.01,0.12-0.01,0.14s-0.04,0.03-0.11,0.02l-29.05-1.42
			c-0.08,0-0.11-0.01-0.11-0.03s0-0.06,0.01-0.14l0.28-5.76l0-0.11l0.11,0.01l29.05,1.42L348.19,482.75z M334.68,523.19l-0.11-0.01
			l-5.98-0.29l-0.11,0l0.01-0.11l1.87-38.13l6.2,0.3l-1.87,38.13L334.68,523.19z"/>
		<path class="st1" d="M357.45,524.31c-0.02,0-0.05,0-0.08,0l-5.98-0.29c-0.04,0-0.06,0-0.08,0c-0.02,0-0.03-0.04-0.02-0.11l2-40.79
			c0-0.07,0.01-0.11,0.03-0.11c0.02,0,0.05,0,0.08,0l5.98,0.29c0.04,0,0.06,0,0.08,0c0.02,0,0.03,0.04,0.02,0.11l-2,40.79
			C357.48,524.27,357.47,524.31,357.45,524.31z"/>
	</g>
</g>
</svg>
