<?xml version="1.0" encoding="UTF-8"?>
<svg id="_图层_1" data-name="图层 1" xmlns="http://www.w3.org/2000/svg" xmlns:xlink="http://www.w3.org/1999/xlink" viewBox="0 0 779.55 979.55">
  <defs>
    <style>
      .cls-1 {
        fill: url(#_未命名的渐变_5);
      }

      .cls-1, .cls-2 {
        stroke-width: 0px;
      }

      .cls-2 {
        fill: #fff;
      }
    </style>
    <linearGradient id="_未命名的渐变_5" data-name="未命名的渐变 5" x1="0" y1="489.77" x2="779.55" y2="489.77" gradientUnits="userSpaceOnUse">
      <stop offset="0" stop-color="#f8d4f7"/>
      <stop offset="1" stop-color="#f4d1c9"/>
    </linearGradient>
  </defs>
  <rect class="cls-1" width="779.55" height="979.55"/>
  <g>
    <path class="cls-2" d="M62.01,93.19c-.11-1.11-.18-2.22-.17-3.33,0-.49.02-.99.05-1.48.03-.54.27-1.32.17-1.84.14.69-.11.75-.02.23.04-.24.08-.49.13-.73.1-.55.22-1.09.35-1.63.27-1.14.61-2.27,1.01-3.37.08-.23.18-.46.26-.69.37-.99-.06.18-.08.17-.04-.03.67-1.45.7-1.51.49-1,1.04-1.97,1.63-2.91.3-.47.61-.93.93-1.39.14-.2.29-.4.44-.6.61-.84-.11.12-.1.13-.13-.33,2.06-2.33,2.35-2.61s1.97-2.19,2.35-2.09c-.12-.03-.74.54-.13.11.2-.14.4-.29.6-.43.51-.35,1.02-.69,1.55-1.01.56-.34,1.13-.66,1.72-.95.26-.13.53-.24.79-.38.73-.38-1.08.35.22-.09.55-.19,1.09-.39,1.65-.54.28-.08.56-.15.84-.21.2-.04,1.52-.17.37-.1.58-.04,1.15-.08,1.73-.07.32,0,.64.04.95.06.7.03-.98-.19-.31-.04.5.11.99.2,1.48.34.21.06.43.13.64.2.16.05.31.11.47.17.35.14.21.07-.43-.19.32-.17,2.17,1.19,2.47,1.39.19.13.37.26.55.39.56.38-.71-.6-.2-.16.43.38.88.74,1.29,1.14.85.81,1.65,1.68,2.4,2.59.19.23.4.45.56.7-.34-.5-.38-.5-.02,0s.71.99,1.05,1.49c1.38,2.05,2.61,4.19,3.79,6.36,1.25,2.3,4.62,3.23,6.84,1.79,2.33-1.51,3.13-4.38,1.79-6.84-4.88-8.98-11.71-18.76-22.9-19.38-6.46-.36-12.62,3.02-17.41,7.05-3.87,3.26-7.07,7.57-9.13,12.2-2.52,5.67-3.85,11.84-3.21,18.06.27,2.59,2.11,5.13,5,5,2.48-.11,5.29-2.21,5-5h0Z"/>
    <path class="cls-2" d="M139.99,74.7c-.1-.46-.18-.92-.27-1.38-.22-1.15.07.87.01.11-.02-.23-.05-.47-.06-.7-.08-.99-.09-1.98-.04-2.98.03-.53.08-1.05.13-1.57.06-.7-.17.98-.04.29.04-.23.08-.46.12-.69.19-1.04.45-2.06.77-3.06.14-.45.3-.89.46-1.33.44-1.18-.35.72.17-.43.44-.96.93-1.9,1.48-2.8.24-.4.5-.79.76-1.18.17-.24.34-.48.51-.72.24-.35.17-.58-.14.18.34-.82,1.5-1.72,2.12-2.33.34-.32.68-.64,1.03-.94.18-.15.36-.3.54-.45.37-.31.2-.44-.18.14.47-.71,1.92-1.29,2.66-1.7.41-.22.84-.43,1.26-.63.34-.17.53-.46-.23.08.15-.11.5-.2.65-.25.99-.36,2-.66,3.02-.89.46-.1.92-.18,1.38-.26.9-.16-.16.04-.29.03.2.02.49-.05.7-.07,1.05-.09,2.1-.12,3.16-.09.47.02.94.04,1.4.09.05,0,.62,0,.7.07-.33-.25-.93-.15-.28-.04,1.04.17,2.07.39,3.09.67.56.16,1.12.34,1.68.53.22.08.44.16.66.24,1.13.41-.99-.48.1.04.95.45,1.89.92,2.79,1.47.5.3.99.63,1.46.97.18.13.4.26.56.42-.97-.89-.11-.06.08.1.89.76,1.71,1.6,2.48,2.49,1.72,1.99,5.34,1.89,7.07,0,1.94-2.12,1.83-4.95,0-7.07-6.83-7.91-17.71-11.09-27.84-9.51s-18.46,9.46-22.14,19.03c-2.05,5.33-2.37,11.24-1.14,16.79.56,2.56,3.67,4.29,6.15,3.49,2.69-.87,4.1-3.41,3.49-6.15h0Z"/>
    <path class="cls-2" d="M84.99,127.44c4.02,3.89,9.27,5.44,14.68,6.17s11.06,1.05,16.59.95c10.92-.19,22.06-2.22,31.65-7.66,8.7-4.94,15.77-12.45,19.45-21.8.95-2.42,1.86-5.22,1.62-7.84-.33-3.63-2.4-6.64-5.72-8.2-5.58-2.61-12.05-1.73-17.35,1.14s-9.46,8.2-12.47,13.54c-3.26,5.78-5.95,12.15-5.84,18.9.04,2.61,2.27,5.12,5,5s5.05-2.2,5-5c-.01-.6,0-1.19.03-1.78.02-.3.05-.59.07-.89-.02.2-.17.98,0,0,.21-1.17.48-2.33.84-3.47.18-.57.37-1.14.58-1.7.07-.2.76-1.79.35-.89.51-1.09,1.01-2.18,1.57-3.25,1.07-2.04,2.23-4.05,3.56-5.94.19-.27.93-1.26.33-.49.34-.43.69-.86,1.05-1.27.77-.88,1.59-1.71,2.48-2.47.11-.1.78-.67.29-.26s.19-.13.31-.22c.39-.27.78-.53,1.19-.77.47-.28.95-.52,1.43-.77.81-.43.1-.06-.08,0,.31-.13.63-.24.95-.35.51-.17,1.03-.32,1.55-.44.26-.06.53-.1.79-.16.61-.15-.35.04-.34.04.25-.2,1.28-.09,1.59-.08.27,0,.53.02.79.03,1.22.02-.61-.17.05,0,.52.13,1.03.22,1.54.38.19.06.85.42.28.09s.1.08.24.17c.04.02.48.26.47.3-.02.13-.7-.69-.18-.06-.7-.85-.25-.37-.14-.13-.2-.54-.25-.63-.15-.27.09.37.08.27-.03-.3.06.04-.02.56-.01.63.05.71.22-.75,0-.06-.16.51-.25,1.06-.4,1.57-.1.33-1.14,2.86-1.03,2.96-.03-.03.5-1.11.07-.18-.08.17-.15.33-.23.5-.21.44-.43.88-.65,1.31-.48.92-1.01,1.82-1.58,2.69-.27.41-.54.82-.83,1.21-.11.16-.92,1.21-.49.67s-.08.09-.18.22c-.16.19-.31.38-.47.57-.36.42-.73.84-1.11,1.24-1.36,1.46-2.83,2.78-4.36,4.04-.7.58.02,0,.13-.09-.18.16-.41.31-.6.45-.4.3-.81.58-1.22.86-.83.56-1.67,1.1-2.53,1.61s-1.74.99-2.63,1.44c-.45.22-.89.44-1.35.65-.17.08-.34.16-.51.23-.77.35-.22.33,0,.02-.17.25-1.1.44-1.38.55-.57.22-1.14.42-1.71.62-1.14.39-2.3.74-3.47,1.06-2.41.65-4.85,1.09-7.32,1.5-.59.1.13-.01.21-.02-.3.04-.6.08-.9.11-.6.07-1.2.13-1.81.19-1.29.12-2.57.2-3.86.26-5.44.24-10.9,0-16.32-.54-.56-.06-1.18-.07-1.73-.19.15.03,1.11.17.17.02-.32-.05-.64-.1-.96-.16-1.14-.2-2.28-.45-3.39-.78-.45-.14-1.25-.26-1.62-.55.09.07,1.01.48.15.06-.28-.14-.56-.27-.84-.42-.5-.27-.96-.58-1.44-.88-.34-.21-.61-.17.11.1-.3-.11-.63-.56-.84-.77-1.88-1.82-5.22-2.01-7.07,0s-2.01,5.13,0,7.07h0Z"/>
  </g>
  <g>
    <path class="cls-2" d="M565.65,942.93c.39-.6,1.05-.97,1.98-1.12l.29-.04c.76-.11,1.37,0,1.85.32.48.32.98.88,1.51,1.66.73,1.07,1.77,1.83,3.14,2.29,1.36.46,2.74.51,4.12.15,1.39-.36,2.48-1.14,3.26-2.31.51-.76.77-1.52.8-2.29.03-.77-.19-1.46-.65-2.08-.46-.62-1.12-1.08-1.96-1.39-.65-.22-1.88-.46-3.7-.71-.36-.03-1.35-.17-2.95-.42-2.05-.36-3.72-1.38-5.01-3.05-1.29-1.67-1.94-3.57-1.94-5.7s.73-4,2.19-5.6c1.4-1.57,3.19-2.59,5.37-3.05,2.17-.46,4.33-.32,6.48.44,2.15.76,3.91,2.08,5.28,3.96.56.79.72,1.51.46,2.17-.25.66-.8,1.16-1.64,1.49l-.21.08c-.76.31-1.42.34-1.98.11-.56-.24-1.15-.72-1.77-1.45-.73-.84-1.57-1.4-2.52-1.68s-1.9-.28-2.84,0c-.94.28-1.75.8-2.42,1.56-.62.67-.93,1.42-.93,2.25s.27,1.57.8,2.23c.53.66,1.23,1.1,2.1,1.33.31.08.72.16,1.22.23.5.07,1.01.13,1.51.19,1.96.17,3.45.44,4.46.8,2.13.79,3.74,1.94,4.82,3.45,1.08,1.52,1.6,3.19,1.56,5.03-.04,1.84-.64,3.58-1.79,5.24-1.52,2.25-3.71,3.65-6.59,4.21-2.88.56-5.68.28-8.42-.84-2.74-1.12-4.69-2.88-5.87-5.26-.42-.84-.44-1.56-.04-2.17Z"/>
    <path class="cls-2" d="M597.44,949.91c-1.78-1.05-3.19-2.47-4.23-4.25-1.04-1.78-1.56-3.71-1.56-5.79s.53-4.05,1.58-5.83c1.05-1.78,2.47-3.19,4.25-4.23,1.78-1.04,3.71-1.56,5.79-1.56s4.05.52,5.83,1.56c1.78,1.04,3.19,2.45,4.23,4.23,1.04,1.78,1.56,3.72,1.56,5.83s-.52,4-1.56,5.79c-1.04,1.78-2.45,3.2-4.23,4.25-1.78,1.05-3.72,1.58-5.83,1.58s-4.05-.53-5.83-1.58ZM606.5,945.68c.93-.56,1.63-1.35,2.12-2.36.49-1.01.74-2.16.74-3.45s-.25-2.48-.74-3.47c-.49-1-1.2-1.77-2.12-2.33s-2.01-.84-3.24-.84-2.31.28-3.24.84-1.63,1.34-2.12,2.33c-.49,1-.74,2.15-.74,3.47s.25,2.44.76,3.45c.5,1.01,1.21,1.79,2.12,2.36.91.56,1.98.84,3.22.84s2.31-.28,3.24-.84Z"/>
    <path class="cls-2" d="M634.87,929.4c.45-.45,1.11-.67,1.98-.67h.08c.87,0,1.53.23,1.98.67.45.45.67,1.11.67,1.98v8.63c0,2.25-.44,4.24-1.3,5.98-.87,1.74-2.1,3.09-3.68,4.06s-3.39,1.45-5.41,1.45-3.86-.49-5.34-1.47c-1.49-.98-2.62-2.34-3.41-4.08-.79-1.74-1.18-3.72-1.18-5.93v-8.63c0-.87.22-1.53.67-1.98s1.11-.67,1.98-.67h.08c.87,0,1.53.23,1.98.67.45.45.67,1.11.67,1.98v8.63c0,1.52.15,2.73.46,3.64.31.91.79,1.58,1.45,2,.66.42,1.54.63,2.63.63s2.05-.22,2.8-.65c.74-.43,1.3-1.12,1.66-2.04.36-.93.55-2.12.55-3.58v-8.63c0-.87.22-1.53.67-1.98Z"/>
    <path class="cls-2" d="M649.47,950.35c-.45.45-1.11.67-1.98.67h-.08c-.87,0-1.53-.22-1.98-.67-.45-.45-.67-1.11-.67-1.98v-26.59c0-.87.22-1.53.67-1.98.45-.45,1.11-.67,1.98-.67h.08c.87,0,1.53.22,1.98.67.45.45.67,1.11.67,1.98v26.59c0,.87-.22,1.53-.67,1.98Z"/>
    <path class="cls-2" d="M656.87,936.26c1.04-2.44,2.47-4.38,4.29-5.83,1.82-1.44,3.86-2.17,6.1-2.17,1.43,0,2.77.41,4.02,1.22,1.25.81,2.26,2,3.03,3.56.77,1.56,1.16,3.37,1.16,5.45v9.89c0,.87-.23,1.53-.67,1.98-.45.45-1.11.67-1.98.67h-.08c-.87,0-1.53-.22-1.98-.67s-.67-1.11-.67-1.98v-9.89c0-1.15-.21-2.1-.63-2.84s-.95-1.29-1.6-1.64c-.65-.35-1.32-.53-2.02-.53-1.01,0-1.89.21-2.65.63-.76.42-1.36,1.14-1.81,2.15-.45,1.01-.67,2.37-.67,4.08l-5.39,3.79c0-2.8.52-5.43,1.56-7.87ZM660.03,950.35c-.45.45-1.11.67-1.98.67h-.08c-.87,0-1.53-.22-1.98-.67s-.67-1.11-.67-1.98v-17c0-.87.22-1.53.67-1.98s1.11-.67,1.98-.67h.08c.87,0,1.53.23,1.98.67.45.45.67,1.11.67,1.98v17c0,.87-.23,1.53-.67,1.98Z"/>
    <path class="cls-2" d="M685.64,949.91c-1.78-1.05-3.19-2.47-4.23-4.25-1.04-1.78-1.56-3.71-1.56-5.79s.53-4.05,1.58-5.83c1.05-1.78,2.47-3.19,4.25-4.23,1.78-1.04,3.71-1.56,5.79-1.56s4.05.52,5.83,1.56c1.78,1.04,3.19,2.45,4.23,4.23,1.04,1.78,1.56,3.72,1.56,5.83s-.52,4-1.56,5.79c-1.04,1.78-2.45,3.2-4.23,4.25-1.78,1.05-3.72,1.58-5.83,1.58s-4.05-.53-5.83-1.58ZM694.7,945.68c.93-.56,1.63-1.35,2.12-2.36.49-1.01.74-2.16.74-3.45s-.25-2.48-.74-3.47c-.49-1-1.2-1.77-2.12-2.33s-2.01-.84-3.24-.84-2.31.28-3.24.84-1.63,1.34-2.12,2.33c-.49,1-.74,2.15-.74,3.47s.25,2.44.76,3.45c.5,1.01,1.21,1.79,2.12,2.36.91.56,1.98.84,3.22.84s2.31-.28,3.24-.84Z"/>
    <path class="cls-2" d="M720.08,929.36c.42.42.63,1.04.63,1.85v.04c0,.79-.21,1.4-.63,1.83-.42.44-1.04.65-1.85.65h-10.39c-.79,0-1.4-.22-1.83-.65-.44-.43-.65-1.04-.65-1.83v-.04c0-.81.22-1.43.65-1.85.43-.42,1.04-.63,1.83-.63h10.39c.81,0,1.43.21,1.85.63ZM720.08,946.48c.42.42.63,1.02.63,1.81v.08c0,.84-.24,1.49-.72,1.96-.48.46-1.14.65-1.98.57-2.92-.34-5.06-1.26-6.44-2.76-1.38-1.5-2.06-3.53-2.06-6.08v-17.8c0-.87.22-1.53.67-1.98.45-.45,1.11-.67,1.98-.67h.08c.87,0,1.53.22,1.98.67.45.45.67,1.11.67,1.98v16.96c0,.95.09,1.73.27,2.31.18.59.51,1.05.97,1.39.46.34,1.13.58,2,.71.87.14,1.52.42,1.94.84Z"/>
    <path class="cls-2" d="M744.97,940.19c-.69.72-1.68,1.07-2.97,1.07h-.97c0-1.91-.26-3.47-.78-4.69-.52-1.22-1.23-2.1-2.15-2.65-.91-.55-1.99-.82-3.22-.82-1.43,0-2.63.26-3.6.78-.97.52-1.7,1.28-2.21,2.29s-.76,2.23-.76,3.66.25,2.74.76,3.75,1.28,1.77,2.31,2.29c1.04.52,2.34.78,3.91.78.73,0,1.43-.13,2.1-.4.67-.27,1.29-.65,1.85-1.16.65-.53,1.24-.84,1.79-.93.55-.08,1.13.08,1.75.5l.13.08c.73.5,1.14,1.07,1.22,1.7.08.63-.18,1.24-.8,1.83-1.15,1.01-2.42,1.8-3.81,2.36s-2.8.84-4.23.84c-2.44,0-4.57-.5-6.4-1.51-1.82-1.01-3.23-2.4-4.23-4.17-1-1.77-1.49-3.76-1.49-5.98s.5-4.2,1.49-5.95c1-1.75,2.38-3.13,4.17-4.12,1.78-1,3.79-1.49,6.04-1.49,1.68,0,3.26.34,4.73,1.01,1.47.67,2.74,1.68,3.81,3.03,1.07,1.35,1.8,3,2.19,4.97.25,1.23.03,2.21-.65,2.92ZM741.67,941.26h-14.98v-4.38h14.98v4.38Z"/>
  </g>
</svg>