<?xml version="1.0" encoding="UTF-8"?>
<svg id="_图层_1" data-name="图层 1" xmlns="http://www.w3.org/2000/svg" xmlns:xlink="http://www.w3.org/1999/xlink" viewBox="0 0 779.55 979.55">
  <defs>
    <style>
      .cls-1 {
        fill: url(#_未命名的渐变_8);
      }

      .cls-1, .cls-2 {
        stroke-width: 0px;
      }

      .cls-2 {
        fill: #fff;
      }
    </style>
    <linearGradient id="_未命名的渐变_8" data-name="未命名的渐变 8" x1="0" y1="489.77" x2="779.55" y2="489.77" gradientUnits="userSpaceOnUse">
      <stop offset="0" stop-color="#f7dda1"/>
      <stop offset="1" stop-color="#dbfaf9"/>
    </linearGradient>
  </defs>
  <rect class="cls-1" width="779.55" height="979.55"/>
  <g>
    <path class="cls-2" d="M96.41,49.02c-2.11,5.01-4.22,10.02-6.33,15.02-.47,1.11-.07,2.87.5,3.85.61,1.04,1.8,2.03,2.99,2.3,1.28.29,2.72.23,3.85-.5l1.01-.78c.62-.62,1.05-1.36,1.29-2.21,2.11-5.01,4.22-10.02,6.33-15.02.47-1.11.07-2.87-.5-3.85-.61-1.04-1.8-2.03-2.99-2.3-1.28-.29-2.72-.23-3.85.5l-1.01.78c-.62.62-1.05,1.36-1.29,2.21h0Z"/>
    <path class="cls-2" d="M142.01,51l-11.08,19.77c-1.28,2.28-.62,5.56,1.79,6.84s5.48.64,6.84-1.79l11.08-19.77c1.28-2.28.62-5.56-1.79-6.84s-5.48-.64-6.84,1.79h0Z"/>
    <path class="cls-2" d="M58.4,70.88c8.64,11.35,16.59,23.2,23.81,35.5,1.15,1.96,3.48,2.82,5.65,2.3,11.38-2.75,22.9-4.91,34.5-6.51.92-.13-1.19.15.35-.05.32-.04.64-.08.96-.12.64-.08,1.28-.16,1.92-.24,1.6-.2,3.21-.38,4.81-.55,2.89-.31,5.78-.59,8.68-.83,5.79-.48,11.6-.81,17.41-.99,6.62-.21,13.24-.22,19.86-.05,2.62.07,5.12-2.35,5-5s-2.2-4.93-5-5c-23.94-.62-47.92,1.28-71.48,5.55-6.59,1.19-13.15,2.58-19.67,4.16l5.65,2.3c-7.22-12.29-15.17-24.15-23.81-35.5-.82-1.08-1.62-1.92-2.99-2.3-1.2-.33-2.79-.18-3.85.5-2.05,1.32-3.49,4.61-1.79,6.84h0Z"/>
  </g>
  <g>
    <path class="cls-2" d="M560.6,939.62c.39-.6,1.05-.97,1.98-1.12l.29-.04c.76-.11,1.37,0,1.85.32.48.32.98.88,1.51,1.66.73,1.07,1.77,1.83,3.14,2.29,1.36.46,2.74.51,4.12.15,1.39-.36,2.48-1.14,3.26-2.31.51-.76.77-1.52.8-2.29.03-.77-.19-1.46-.65-2.08-.46-.62-1.12-1.08-1.96-1.39-.65-.22-1.88-.46-3.7-.71-.36-.03-1.35-.17-2.95-.42-2.05-.36-3.72-1.38-5.01-3.05-1.29-1.67-1.94-3.57-1.94-5.7s.73-4,2.19-5.6c1.4-1.57,3.19-2.59,5.37-3.05,2.17-.46,4.33-.32,6.48.44,2.15.76,3.91,2.08,5.28,3.96.56.79.72,1.51.46,2.17-.25.66-.8,1.16-1.64,1.49l-.21.08c-.76.31-1.42.34-1.98.11-.56-.24-1.15-.72-1.77-1.45-.73-.84-1.57-1.4-2.52-1.68s-1.9-.28-2.84,0c-.94.28-1.75.8-2.42,1.56-.62.67-.93,1.42-.93,2.25s.27,1.57.8,2.23c.53.66,1.23,1.1,2.1,1.33.31.08.72.16,1.22.23.5.07,1.01.13,1.51.19,1.96.17,3.45.44,4.46.8,2.13.79,3.74,1.94,4.82,3.45,1.08,1.52,1.6,3.19,1.56,5.03-.04,1.84-.64,3.58-1.79,5.24-1.52,2.25-3.71,3.65-6.59,4.21-2.88.56-5.68.28-8.42-.84-2.74-1.12-4.69-2.88-5.87-5.26-.42-.84-.44-1.56-.04-2.17Z"/>
    <path class="cls-2" d="M592.39,946.61c-1.78-1.05-3.19-2.47-4.23-4.25-1.04-1.78-1.56-3.71-1.56-5.79s.53-4.05,1.58-5.83c1.05-1.78,2.47-3.19,4.25-4.23,1.78-1.04,3.71-1.56,5.79-1.56s4.05.52,5.83,1.56c1.78,1.04,3.19,2.45,4.23,4.23,1.04,1.78,1.56,3.72,1.56,5.83s-.52,4-1.56,5.79c-1.04,1.78-2.45,3.2-4.23,4.25-1.78,1.05-3.72,1.58-5.83,1.58s-4.05-.53-5.83-1.58ZM601.46,942.38c.93-.56,1.63-1.35,2.12-2.36.49-1.01.74-2.16.74-3.45s-.25-2.48-.74-3.47c-.49-1-1.2-1.77-2.12-2.33s-2.01-.84-3.24-.84-2.31.28-3.24.84-1.63,1.34-2.12,2.33c-.49,1-.74,2.15-.74,3.47s.25,2.44.76,3.45c.5,1.01,1.21,1.79,2.12,2.36.91.56,1.98.84,3.22.84s2.31-.28,3.24-.84Z"/>
    <path class="cls-2" d="M629.82,926.09c.45-.45,1.11-.67,1.98-.67h.08c.87,0,1.53.23,1.98.67.45.45.67,1.11.67,1.98v8.63c0,2.25-.44,4.24-1.3,5.98-.87,1.74-2.1,3.09-3.68,4.06s-3.39,1.45-5.41,1.45-3.86-.49-5.34-1.47c-1.49-.98-2.62-2.34-3.41-4.08-.79-1.74-1.18-3.72-1.18-5.93v-8.63c0-.87.22-1.53.67-1.98s1.11-.67,1.98-.67h.08c.87,0,1.53.23,1.98.67.45.45.67,1.11.67,1.98v8.63c0,1.52.15,2.73.46,3.64.31.91.79,1.58,1.45,2,.66.42,1.54.63,2.63.63s2.05-.22,2.8-.65c.74-.43,1.3-1.12,1.66-2.04.36-.93.55-2.12.55-3.58v-8.63c0-.87.22-1.53.67-1.98Z"/>
    <path class="cls-2" d="M644.42,947.05c-.45.45-1.11.67-1.98.67h-.08c-.87,0-1.53-.22-1.98-.67-.45-.45-.67-1.11-.67-1.98v-26.59c0-.87.22-1.53.67-1.98.45-.45,1.11-.67,1.98-.67h.08c.87,0,1.53.22,1.98.67.45.45.67,1.11.67,1.98v26.59c0,.87-.22,1.53-.67,1.98Z"/>
    <path class="cls-2" d="M651.83,932.95c1.04-2.44,2.47-4.38,4.29-5.83,1.82-1.44,3.86-2.17,6.1-2.17,1.43,0,2.77.41,4.02,1.22,1.25.81,2.26,2,3.03,3.56.77,1.56,1.16,3.37,1.16,5.45v9.89c0,.87-.23,1.53-.67,1.98-.45.45-1.11.67-1.98.67h-.08c-.87,0-1.53-.22-1.98-.67s-.67-1.11-.67-1.98v-9.89c0-1.15-.21-2.1-.63-2.84s-.95-1.29-1.6-1.64c-.65-.35-1.32-.53-2.02-.53-1.01,0-1.89.21-2.65.63-.76.42-1.36,1.14-1.81,2.15-.45,1.01-.67,2.37-.67,4.08l-5.39,3.79c0-2.8.52-5.43,1.56-7.87ZM654.98,947.05c-.45.45-1.11.67-1.98.67h-.08c-.87,0-1.53-.22-1.98-.67s-.67-1.11-.67-1.98v-17c0-.87.22-1.53.67-1.98s1.11-.67,1.98-.67h.08c.87,0,1.53.23,1.98.67.45.45.67,1.11.67,1.98v17c0,.87-.23,1.53-.67,1.98Z"/>
    <path class="cls-2" d="M680.59,946.61c-1.78-1.05-3.19-2.47-4.23-4.25-1.04-1.78-1.56-3.71-1.56-5.79s.53-4.05,1.58-5.83c1.05-1.78,2.47-3.19,4.25-4.23,1.78-1.04,3.71-1.56,5.79-1.56s4.05.52,5.83,1.56c1.78,1.04,3.19,2.45,4.23,4.23,1.04,1.78,1.56,3.72,1.56,5.83s-.52,4-1.56,5.79c-1.04,1.78-2.45,3.2-4.23,4.25-1.78,1.05-3.72,1.58-5.83,1.58s-4.05-.53-5.83-1.58ZM689.65,942.38c.93-.56,1.63-1.35,2.12-2.36.49-1.01.74-2.16.74-3.45s-.25-2.48-.74-3.47c-.49-1-1.2-1.77-2.12-2.33s-2.01-.84-3.24-.84-2.31.28-3.24.84-1.63,1.34-2.12,2.33c-.49,1-.74,2.15-.74,3.47s.25,2.44.76,3.45c.5,1.01,1.21,1.79,2.12,2.36.91.56,1.98.84,3.22.84s2.31-.28,3.24-.84Z"/>
    <path class="cls-2" d="M715.03,926.05c.42.42.63,1.04.63,1.85v.04c0,.79-.21,1.4-.63,1.83-.42.44-1.04.65-1.85.65h-10.39c-.79,0-1.4-.22-1.83-.65-.44-.43-.65-1.04-.65-1.83v-.04c0-.81.22-1.43.65-1.85.43-.42,1.04-.63,1.83-.63h10.39c.81,0,1.43.21,1.85.63ZM715.03,943.18c.42.42.63,1.02.63,1.81v.08c0,.84-.24,1.49-.72,1.96-.48.46-1.14.65-1.98.57-2.92-.34-5.06-1.26-6.44-2.76-1.38-1.5-2.06-3.53-2.06-6.08v-17.8c0-.87.22-1.53.67-1.98.45-.45,1.11-.67,1.98-.67h.08c.87,0,1.53.22,1.98.67.45.45.67,1.11.67,1.98v16.96c0,.95.09,1.73.27,2.31.18.59.51,1.05.97,1.39.46.34,1.13.58,2,.71.87.14,1.52.42,1.94.84Z"/>
    <path class="cls-2" d="M739.92,936.89c-.69.72-1.68,1.07-2.97,1.07h-.97c0-1.91-.26-3.47-.78-4.69-.52-1.22-1.23-2.1-2.15-2.65-.91-.55-1.99-.82-3.22-.82-1.43,0-2.63.26-3.6.78-.97.52-1.7,1.28-2.21,2.29s-.76,2.23-.76,3.66.25,2.74.76,3.75,1.28,1.77,2.31,2.29c1.04.52,2.34.78,3.91.78.73,0,1.43-.13,2.1-.4.67-.27,1.29-.65,1.85-1.16.65-.53,1.24-.84,1.79-.93.55-.08,1.13.08,1.75.5l.13.08c.73.5,1.14,1.07,1.22,1.7.08.63-.18,1.24-.8,1.83-1.15,1.01-2.42,1.8-3.81,2.36s-2.8.84-4.23.84c-2.44,0-4.57-.5-6.4-1.51-1.82-1.01-3.23-2.4-4.23-4.17-1-1.77-1.49-3.76-1.49-5.98s.5-4.2,1.49-5.95c1-1.75,2.38-3.13,4.17-4.12,1.78-1,3.79-1.49,6.04-1.49,1.68,0,3.26.34,4.73,1.01,1.47.67,2.74,1.68,3.81,3.03,1.07,1.35,1.8,3,2.19,4.97.25,1.23.03,2.21-.65,2.92ZM736.62,937.96h-14.98v-4.38h14.98v4.38Z"/>
  </g>
</svg>